<?xml version="1.0" standalone="no"?>
<!DOCTYPE svg PUBLIC "-//W3C//DTD SVG 1.1//EN" "http://www.w3.org/Graphics/SVG/1.1/DTD/svg11.dtd" >
<svg>
<metadata>
Created by FontForge 20120731 at Mon Jul  8 16:01:22 2019
 By www
(c) 1987, 1991, 1993, 1994, 1998, 2002 Adobe Systems Incorporated. All rights reserved. (c) 1981, 1998, 2002 Heidelberger Druckmaschinen AG. All rights reserved.
</metadata>
<defs>
<font id="UniversLTStd" horiz-adv-x="556" >
  <font-face 
    font-family="Univers LT Std 55"
    font-weight="400"
    font-stretch="normal"
    units-per-em="1000"
    panose-1="2 11 6 3 2 2 2 2 2 4"
    ascent="724"
    descent="-276"
    x-height="502"
    cap-height="722"
    bbox="-168 -250 992 947"
    underline-thickness="50"
    underline-position="-100"
    unicode-range="U+0020-FB02"
  />
<missing-glyph horiz-adv-x="500" 
d="M0 0v700h500v-700h-500zM250 395l170 255h-340zM280 350l170 -255v510zM80 50h340l-170 255zM50 605v-510l170 255z" />
    <glyph glyph-name="f_i" unicode="fi" horiz-adv-x="611" 
d="M411 618v102h112v-102h-112zM514 0h-93v502h93v-502zM339 727v-75q-32 2 -55 2q-27 0 -43.5 -5.5t-23 -18.5t-8 -22t-1.5 -27v-79h117v-68h-117v-434h-93v434h-99v68h99v57q0 52 4 76.5t17 43.5q37 55 126 55q30 0 77 -7z" />
    <glyph glyph-name="f_l" unicode="fl" horiz-adv-x="611" 
d="M419 0v721h94v-721h-94zM339 727v-75q-32 2 -55 2q-27 0 -43.5 -5.5t-23 -18.5t-8 -22t-1.5 -27v-79h117v-68h-117v-434h-93v434h-99v68h99v57q0 52 4 76.5t17 43.5q37 55 126 55q30 0 77 -7z" />
    <glyph glyph-name=".notdef" horiz-adv-x="500" 
d="M0 0v700h500v-700h-500zM250 395l170 255h-340zM280 350l170 -255v510zM80 50h340l-170 255zM50 605v-510l170 255z" />
    <glyph glyph-name=".null" horiz-adv-x="0" 
 />
    <glyph glyph-name="nonmarkingreturn" horiz-adv-x="333" 
 />
    <glyph glyph-name="space" unicode=" " horiz-adv-x="278" 
 />
    <glyph glyph-name="exclam" unicode="!" horiz-adv-x="389" 
d="M262 721l-22 -556h-71l-19 556h112zM149 0v100h106v-100h-106z" />
    <glyph glyph-name="quotedbl" unicode="&#x22;" horiz-adv-x="400" 
d="M76 692h83l-14 -246h-54zM241 692h83l-15 -246h-54z" />
    <glyph glyph-name="numbersign" unicode="#" 
d="M5 197l1 69h112l28 149h-100v69h113l38 208h81l-39 -208h122l38 208h81l-39 -208h100v-69h-113l-27 -149h99v-69h-112l-37 -197h-80l36 197h-121l-37 -197h-80l36 197h-100zM199 266h121l28 149h-122z" />
    <glyph glyph-name="dollar" unicode="$" 
d="M253 775h51v-81q22 0 40.5 -2t53 -11.5t58.5 -25t43.5 -48.5t20.5 -77h-105q-2 79 -112 83v-209q39 -11 63.5 -19t59.5 -25t54.5 -37t34.5 -52.5t15 -72.5q0 -106 -90 -165q-46 -30 -139 -38v-99h-51v99q-32 1 -51 3t-53 15t-62 38q-35 32 -45.5 65t-10.5 74h102
q-2 -41 26.5 -75t93.5 -35v234q-123 37 -166 77.5t-43 120.5q0 97 85 150q46 28 127 31v82zM252 419v194q-31 -3 -53 -12.5t-33 -20t-17.5 -24t-7.5 -21.5t-1 -16q0 -24 9.5 -41.5t29 -29t34 -17t39.5 -12.5zM303 301v-221q60 1 91.5 32.5t31.5 73.5q0 27 -11 47t-32.5 33.5
t-37.5 20t-42 14.5z" />
    <glyph glyph-name="percent" unicode="%" horiz-adv-x="889" 
d="M222 711q80 0 117.5 -50.5t37.5 -126.5q0 -89 -46 -135t-118 -46q-70 0 -115.5 44t-45.5 131q0 82 44 132.5t126 50.5zM215 411q83 0 83 119q0 121 -83 121q-86 0 -86 -122q0 -118 86 -118zM675 346q76 0 120 -48q41 -46 41 -127q0 -84 -41 -133.5t-120 -49.5
q-46 0 -79.5 15.5t-51 42.5t-25.5 56.5t-8 63.5q0 87 46.5 133.5t117.5 46.5zM674 47q86 0 86 122q0 16 -2.5 32.5t-10 39t-26 36t-45.5 13.5q-86 0 -86 -134q0 -17 2.5 -32.5t10.5 -34.5t26 -30.5t45 -11.5zM251 -39h-66l441 770h66z" />
    <glyph glyph-name="ampersand" unicode="&#x26;" horiz-adv-x="778" 
d="M595 468h97q-1 -106 -19.5 -170.5t-68.5 -130.5l172 -167h-140l-94 89q-108 -106 -250 -106q-113 0 -178 59.5t-65 148.5q0 40 12 74.5t37 63.5t46 47t57 45q-83 77 -83 166q0 72 51 115.5t143 43.5q101 0 150 -45q43 -40 43 -99q0 -37 -14.5 -70t-41.5 -59.5t-43 -39
t-41 -29.5l177 -175q29 49 41 99.5t12 139.5zM301 469q97 66 97 129q0 26 -21 47t-62 21q-39 0 -64.5 -22t-25.5 -52q0 -49 76 -123zM477 149l-212 209q-60 -44 -85.5 -83t-25.5 -81q0 -67 48 -97t105 -30q91 0 170 82z" />
    <glyph glyph-name="quotesingle" unicode="'" horiz-adv-x="278" 
d="M98 692h83l-15 -246h-54z" />
    <glyph glyph-name="parenleft" unicode="(" horiz-adv-x="333" 
d="M257 -123h-65q-35 87 -56.5 145.5t-42 145t-20.5 154.5q0 98 41 233q25 82 71 197h66q-38 -115 -59 -212q-28 -123 -28 -216q0 -68 13 -142.5t28.5 -130.5t51.5 -174z" />
    <glyph glyph-name="parenright" unicode=")" horiz-adv-x="333" 
d="M76 752h65q36 -88 57 -145.5t41.5 -144t20.5 -154.5q0 -98 -41 -233q-27 -86 -71 -198h-66q39 120 59 213q28 121 28 216q0 67 -13 141.5t-28.5 130.5t-51.5 174z" />
    <glyph glyph-name="asterisk" unicode="*" 
d="M480 563v-75l-172 19l102 -138l-65 -40l-67 158l-72 -156l-68 37l106 139l-166 -14v73l169 -22l-102 140l66 36l67 -155l69 156l67 -37l-105 -140z" />
    <glyph glyph-name="plus" unicode="+" horiz-adv-x="584" 
d="M250 0v213h-213v77h213v213h84v-213h213v-77h-213v-213h-84z" />
    <glyph glyph-name="comma" unicode="," horiz-adv-x="278" 
d="M113 120h116l-112 -246h-68z" />
    <glyph glyph-name="hyphen" unicode="-" horiz-adv-x="333" 
d="M42 225v76h251v-76h-251z" />
    <glyph glyph-name="period" unicode="." horiz-adv-x="278" 
d="M81 0v120h111v-120h-111z" />
    <glyph glyph-name="slash" unicode="/" horiz-adv-x="278" 
d="M-9 -16l234 729h65l-233 -729h-66z" />
    <glyph glyph-name="zero" unicode="0" 
d="M44 338q0 28 1 53t6.5 64.5t14.5 71t26.5 66.5t41 58.5t60.5 39t82 15.5q59 0 103 -25t68 -61t38.5 -87t18.5 -92t4 -87q0 -225 -96 -315q-56 -53 -138 -53q-65 0 -112.5 32.5t-72.5 82.5q-45 90 -45 237zM140 343q0 -274 135 -274q136 0 136 276q0 136 -30 208.5
t-104 72.5q-137 0 -137 -283z" />
    <glyph glyph-name="one" unicode="1" 
d="M271 0v583q-66 -56 -161 -100v100q103 54 168 109h89v-692h-96z" />
    <glyph glyph-name="two" unicode="2" 
d="M53 0v91l181 178q68 66 107 119q51 70 51 123q0 16 -4 32.5t-14 36t-34 32t-59 12.5q-31 0 -54 -10.5t-34 -24t-17 -33t-7 -30.5t-1 -23h-105q3 99 64 152q59 50 150 50q90 0 152 -49.5t62 -152.5q0 -27 -3.5 -44.5t-21 -50.5t-53.5 -78q-32 -40 -128 -136l-121 -115h329
v-79h-440z" />
    <glyph glyph-name="three" unicode="3" 
d="M38 178h106q-1 -51 32 -82t95 -31q68 0 103 36t35 87t-28.5 82t-71.5 40q-35 7 -96 5v81q30 -3 59 0.5t59 15t48.5 38t18.5 66.5q0 56 -33.5 82.5t-88.5 26.5q-47 0 -83.5 -25t-42.5 -84h-101q2 49 21 85.5t44 55.5t58 30.5t56 14.5t45 3q107 0 166.5 -55t59.5 -132
q0 -32 -11.5 -62.5t-44 -60t-82.5 -40.5q42 -6 72 -25t44 -38.5t22 -45.5t9 -37.5t1 -21.5q0 -80 -63.5 -142t-176.5 -62q-128 0 -190 72q-38 43 -41 123z" />
    <glyph glyph-name="four" unicode="4" 
d="M340 0v150h-312v119l300 432h108v-470h101v-81h-101v-150h-96zM104 231h239v365z" />
    <glyph glyph-name="five" unicode="5" 
d="M56 164h104q1 -49 36 -73.5t79 -24.5q34 0 60.5 12.5t40.5 30t22.5 41t11 41t2.5 34.5q0 70 -35.5 109.5t-95.5 39.5q-57 0 -93 -36q-20 -20 -32 -58h-91l18 412h389v-81h-303l-13 -224q64 64 146 64q99 0 153 -66t54 -162q0 -104 -68 -171.5t-179 -67.5q-87 0 -144.5 47
t-61.5 133z" />
    <glyph glyph-name="six" unicode="6" 
d="M510 528h-103q-1 55 -32.5 79t-72.5 24q-74 0 -110 -65t-43 -205q12 18 21 28.5t28.5 26.5t47.5 24.5t64 8.5q89 0 149 -58t60 -164q0 -114 -69 -178t-165 -64q-51 0 -97.5 20t-73.5 55q-63 84 -63 255q0 51 5.5 99t22 103t43.5 95t74.5 67t110.5 27q105 0 166 -66
q34 -40 37 -112zM289 61q53 0 93.5 39.5t40.5 117.5q0 23 -4.5 45.5t-16.5 49t-40 43t-68 16.5q-66 0 -102 -45.5t-36 -109.5q0 -68 37.5 -112t95.5 -44z" />
    <glyph glyph-name="seven" unicode="7" 
d="M35 609v83h457v-84l-254 -608h-113l266 609h-356z" />
    <glyph glyph-name="eight" unicode="8" 
d="M190 365q-66 14 -102.5 57t-36.5 97q0 21 5.5 43.5t21 49.5t39.5 47.5t65 34.5t93 14q107 0 168.5 -51.5t61.5 -133.5q0 -55 -36 -99.5t-105 -57.5q19 -5 32 -9.5t38 -18.5t40.5 -31t28 -47.5t12.5 -68.5q0 -81 -59.5 -142t-178.5 -61q-116 0 -179 58q-61 56 -61 139
q0 77 53 127q31 31 100 53zM409 521q0 49 -35 81t-95 32q-57 0 -94 -31t-37 -82q0 -50 36.5 -81t91.5 -31q58 0 95.5 31t37.5 81zM138 194q0 -48 34.5 -87.5t104.5 -39.5q39 0 68 12.5t43 33.5t20.5 41.5t6.5 42.5q0 57 -38 92t-98 35q-63 0 -102 -37t-39 -93z" />
    <glyph glyph-name="nine" unicode="9" 
d="M46 165h105q0 -47 27.5 -74.5t83.5 -27.5q43 0 74 19.5t45 50.5t22.5 69.5t7.5 76.5t-1 71q-46 -87 -155 -87q-88 0 -149.5 57.5t-61.5 161.5q0 111 65.5 167t156.5 56q31 0 61 -7.5t62.5 -24.5t59 -52.5t40.5 -85.5q20 -70 20 -186q0 -24 -0.5 -39.5t-2.5 -47t-6.5 -54
t-13.5 -53.5t-21 -53t-32 -45.5t-44.5 -38.5t-59 -24.5t-75.5 -9.5q-30 0 -57.5 5t-55 17.5t-47.5 32.5t-33.5 52t-14.5 74zM399 480q0 71 -39 110.5t-94 39.5q-59 0 -91.5 -42.5t-32.5 -106.5q0 -66 36.5 -104t94.5 -38t92 39t34 102z" />
    <glyph glyph-name="colon" unicode=":" horiz-adv-x="278" 
d="M83 389v118h111v-118h-111zM83 0v118h111v-118h-111z" />
    <glyph glyph-name="semicolon" unicode=";" horiz-adv-x="278" 
d="M95 387v120h116v-120h-116zM113 120h116l-112 -246h-68z" />
    <glyph glyph-name="less" unicode="&#x3c;" horiz-adv-x="584" 
d="M37 210v82l510 200v-86l-406 -155l406 -154v-87z" />
    <glyph glyph-name="equal" unicode="=" horiz-adv-x="584" 
d="M37 314v77h510v-77h-510zM37 111v78h510v-78h-510z" />
    <glyph glyph-name="greater" unicode="&#x3e;" horiz-adv-x="584" 
d="M547 210l-510 -200v87l406 154l-406 155v86l510 -200v-82z" />
    <glyph glyph-name="question" unicode="?" horiz-adv-x="500" 
d="M74 625v90q63 21 142 21q129 0 187 -62q45 -48 45 -116q0 -38 -15.5 -71t-35 -55t-70.5 -74q-56 -56 -56 -57q-8 -11 -8 -31v-106h-84v106q0 32 7.5 46.5t44.5 54.5q66 69 89.5 103.5t23.5 74.5q0 35 -16 58.5t-43 32t-43 11t-33 2.5q-67 0 -135 -28zM171 0v102h104v-102
h-104z" />
    <glyph glyph-name="at" unicode="@" horiz-adv-x="1015" 
d="M653 549h69l-61 -206q-16 -57 -16 -76q0 -41 44 -41q51 0 95 63t44 156q0 122 -83 187t-204 65q-148 0 -251 -94t-103 -254q0 -146 95.5 -234t245.5 -88q141 0 275 95l25 -33q-72 -52 -143 -79t-160 -27q-169 0 -276.5 102t-107.5 267q0 92 34 167.5t91 123t128 73
t147 25.5q138 0 236 -78.5t98 -222.5q0 -115 -63.5 -189.5t-140.5 -74.5q-33 0 -56.5 18.5t-23.5 51.5q0 14 4 28q-49 -98 -140 -98q-59 0 -96.5 41t-37.5 110q0 87 56.5 162t141.5 75q58 0 90 -33q17 -16 26 -46zM607 436q0 42 -22.5 60.5t-49.5 18.5q-56 0 -94.5 -64.5
t-38.5 -128.5q0 -42 18.5 -69t54.5 -27q33 0 60 26.5t42 63.5t22.5 69t7.5 51z" />
    <glyph glyph-name="A" unicode="A" horiz-adv-x="722" 
d="M9 0l304 722h107l292 -722h-109l-78 188h-335l-78 -188h-103zM362 623l-140 -354h273z" />
    <glyph glyph-name="B" unicode="B" horiz-adv-x="667" 
d="M95 0v722h258q70 0 110 -10.5t72 -42.5q51 -49 51 -129q0 -34 -10 -61.5t-22 -43.5t-32.5 -29.5t-30.5 -18t-27 -10.5q19 -5 32 -10t36.5 -19t38 -31.5t26 -49t11.5 -70.5q0 -106 -87 -164q-23 -15 -53.5 -23t-51 -9t-58.5 -1h-263zM192 640v-223h140q150 0 150 114
q0 31 -10.5 53t-24 32.5t-37 16.5t-37.5 6.5t-37 0.5h-144zM192 331v-250h171q62 0 102 32.5t40 92.5q0 55 -36.5 90t-101.5 35h-175z" />
    <glyph glyph-name="C" unicode="C" horiz-adv-x="667" 
d="M630 527h-107q-2 14 -4 23t-12.5 31t-25.5 35t-45 24.5t-69 11.5q-50 0 -88 -20t-59.5 -50t-35 -71.5t-18 -79t-4.5 -77.5q0 -56 9 -102.5t30.5 -89t63.5 -67t101 -24.5q75 0 117 43q27 29 35 76h110q-11 -100 -89 -150.5t-181 -50.5q-73 0 -129 25t-88 62.5t-52 88.5
t-27 96t-7 92q0 41 6 81t19 84.5t37 81.5t57.5 67.5t84 47.5t112.5 17q42 0 82 -9.5t80 -31t66 -64t31 -100.5z" />
    <glyph glyph-name="D" unicode="D" horiz-adv-x="722" 
d="M88 0v722h209q50 0 78 -2t71.5 -9.5t78.5 -28.5t63 -54q89 -104 89 -273q0 -107 -35.5 -182t-84.5 -114q-33 -28 -80 -41.5t-82 -15.5t-104 -2h-203zM188 639v-557h98q136 0 189 40q95 71 95 229q0 148 -70 225q-33 36 -77.5 49.5t-114.5 13.5h-120z" />
    <glyph glyph-name="E" unicode="E" horiz-adv-x="611" 
d="M76 0v722h453v-85h-353v-225h336v-84h-336v-240h361v-88h-461z" />
    <glyph glyph-name="F" unicode="F" 
d="M95 0v722h430v-85h-328v-225h309v-84h-309v-328h-102z" />
    <glyph glyph-name="G" unicode="G" horiz-adv-x="778" 
d="M686 542h-109q-9 52 -50.5 82.5t-112.5 30.5q-109 0 -163 -61q-77 -86 -77 -232q0 -58 15 -121.5t51 -105.5q62 -71 192 -71q81 0 157 23v214h-165v83h265v-356q-132 -44 -257 -44q-174 0 -262 90q-101 102 -101 275q0 34 5.5 71t20 87t48 97t81.5 79q75 51 201 51
q137 0 213 -77q43 -45 48 -115z" />
    <glyph glyph-name="H" unicode="H" horiz-adv-x="722" 
d="M88 722h100v-310h343v310h100v-722h-100v326h-343v-326h-100v722z" />
    <glyph glyph-name="I" unicode="I" horiz-adv-x="278" 
d="M88 0v722h100v-722h-100z" />
    <glyph glyph-name="J" unicode="J" 
d="M21 196h106q2 -58 16 -79q28 -44 93 -44q68 0 100 51q17 29 17 97v501h100v-528q0 -96 -65 -150.5t-159 -54.5q-115 0 -172 75q-36 49 -36 132z" />
    <glyph glyph-name="K" unicode="K" horiz-adv-x="667" 
d="M93 0v722h99v-316l301 316h137l-323 -323l358 -399h-140l-333 383v-383h-99z" />
    <glyph glyph-name="L" unicode="L" 
d="M93 0v722h99v-633h336v-89h-435z" />
    <glyph glyph-name="M" unicode="M" horiz-adv-x="944" 
d="M90 0v722h177l204 -595l209 595h165v-722h-98v650l-237 -650h-95l-228 646v-646h-97z" />
    <glyph glyph-name="N" unicode="N" horiz-adv-x="778" 
d="M95 0v722h139l355 -597v597h92v-722h-128l-367 613v-613h-91z" />
    <glyph glyph-name="O" unicode="O" horiz-adv-x="778" 
d="M59 356q0 188 93 288q90 97 241 97q153 0 239.5 -96t86.5 -277q0 -77 -16.5 -142t-53.5 -121.5t-104.5 -89t-159.5 -32.5q-89 0 -154 30t-101.5 83t-53.5 117.5t-17 142.5zM164 362q0 -149 64 -228q53 -66 160 -66q105 0 160 66q65 79 65 235q0 288 -219 288
q-53 0 -94 -17t-66 -44t-41.5 -66.5t-22.5 -80t-6 -87.5z" />
    <glyph glyph-name="P" unicode="P" horiz-adv-x="611" 
d="M88 0v722h242q76 0 119.5 -10.5t77.5 -47.5q53 -54 53 -140q0 -84 -57 -141q-31 -31 -79 -46.5t-139 -15.5h-117v-321h-100zM188 641v-236h119q25 0 43 1.5t43.5 8t41.5 19t27.5 36.5t11.5 58q0 32 -11 55t-24.5 34t-37.5 16.5t-37.5 6.5t-35.5 1h-140z" />
    <glyph glyph-name="Q" unicode="Q" horiz-adv-x="778" 
d="M754 79v-79h-120q-74 0 -134 -5q-98 -10 -131 -10q-137 0 -224 94t-87 277q0 185 90 285q89 98 242 98q86 0 149.5 -32t97.5 -86t50 -115.5t16 -130.5q0 -207 -131 -310q67 14 129 14h53zM164 354q0 -50 10 -96.5t32.5 -92.5t67 -74t105.5 -28q49 0 87.5 16t61.5 44
t39 58.5t22.5 67t9 61t2.5 48.5q0 140 -57.5 219t-162.5 79q-57 0 -99 -24.5t-64 -58t-35 -79.5t-16 -77.5t-3 -62.5z" />
    <glyph glyph-name="R" unicode="R" horiz-adv-x="667" 
d="M86 0v722h258q113 0 166 -34q80 -50 80 -147q0 -77 -51 -128q-33 -33 -85 -47q53 -14 78 -43.5t32 -95.5q17 -148 45 -227h-107q-14 42 -33 191q-9 81 -39 108t-119 27h-126v-326h-99zM183 638v-227h158q68 0 95 16q49 28 49 94q0 33 -12 57t-26.5 35t-38 17t-36 7
t-31.5 1h-158z" />
    <glyph glyph-name="S" unicode="S" horiz-adv-x="667" 
d="M56 211h104q1 -17 2.5 -28.5t6.5 -30.5t16.5 -31.5t29.5 -26t48.5 -20t70.5 -6.5q52 0 89 14.5t52.5 37.5t21.5 41t6 36q0 24 -8.5 42t-19.5 28.5t-37 21t-44 15.5t-57 15q-95 23 -132.5 35t-63.5 29q-75 51 -75 142q0 70 41.5 119.5t101.5 70.5t132 21q138 0 203 -71
q39 -42 44 -123h-104q-6 110 -152 110q-75 0 -117.5 -31.5t-42.5 -85.5q0 -46 29.5 -68t100.5 -39q137 -35 170 -45.5t63 -30.5q72 -47 72 -144q0 -99 -75 -162t-210 -63q-160 0 -224 82q-42 54 -42 146z" />
    <glyph glyph-name="T" unicode="T" horiz-adv-x="611" 
d="M362 0h-99v637h-242v85h583v-85h-242v-637z" />
    <glyph glyph-name="U" unicode="U" horiz-adv-x="778" 
d="M93 722h100v-447q0 -85 32 -130q53 -71 165 -71q195 0 195 205v443h97v-445q0 -119 -59 -192q-80 -100 -233 -100q-68 0 -139 25.5t-116 89.5q-42 61 -42 182v440z" />
    <glyph glyph-name="V" unicode="V" horiz-adv-x="667" 
d="M647 722l-266 -722h-110l-257 722h111l205 -617l216 617h101z" />
    <glyph glyph-name="W" unicode="W" horiz-adv-x="1000" 
d="M8 722h107l156 -594l172 594h124l163 -599l164 599h98l-214 -722h-111l-167 617l-179 -617h-108z" />
    <glyph glyph-name="X" unicode="X" horiz-adv-x="722" 
d="M49 722h128l195 -278l195 278h121l-257 -346l270 -376h-126l-215 310l-220 -310h-121l280 378z" />
    <glyph glyph-name="Y" unicode="Y" horiz-adv-x="667" 
d="M289 0v284l-282 438h124l213 -354l216 354h112l-282 -443v-279h-101z" />
    <glyph glyph-name="Z" unicode="Z" horiz-adv-x="611" 
d="M35 0v100l417 534h-406v88h525v-99l-421 -535h428v-88h-543z" />
    <glyph glyph-name="bracketleft" unicode="[" horiz-adv-x="333" 
d="M102 -125v875h173v-53h-94v-769h94v-53h-173z" />
    <glyph glyph-name="backslash" unicode="\" horiz-adv-x="278" 
d="M290 -16h-65l-234 729h66z" />
    <glyph glyph-name="bracketright" unicode="]" horiz-adv-x="333" 
d="M60 -125v53h95v769h-95v53h174v-875h-174z" />
    <glyph glyph-name="asciicircum" unicode="^" horiz-adv-x="584" 
d="M82 271l172 421h76l172 -421h-86l-126 318l-122 -318h-86z" />
    <glyph glyph-name="underscore" unicode="_" horiz-adv-x="500" 
d="M0 -125v50h500v-50h-500z" />
    <glyph glyph-name="grave" unicode="`" horiz-adv-x="278" 
d="M2 740h113l84 -144h-62z" />
    <glyph glyph-name="a" unicode="a" 
d="M479 0h-85q-9 32 -9 75q-49 -91 -155 -91q-84 0 -130.5 41.5t-46.5 106.5q0 96 88 147q59 33 174 33q25 0 68 -3q0 53 -3 74.5t-15 36.5q-25 33 -87 33q-97 0 -101 -85h-94q7 62 35 95q49 54 162 54q59 0 109 -19t69 -55q17 -32 17 -77l-4 -240q0 -68 8 -126zM383 244
q-25 3 -54 3q-181 0 -181 -102q0 -32 24 -59.5t80 -27.5q72 0 107 54q15 24 18.5 48.5t5.5 83.5z" />
    <glyph glyph-name="b" unicode="b" horiz-adv-x="611" 
d="M182 722v-293q49 86 164 86q102 0 159 -64q59 -68 59 -189q0 -120 -48 -183q-29 -42 -76 -64t-100 -22q-65 0 -112 32q-27 19 -49 51l-2 -76h-91l2 90v632h94zM465 256q0 20 -2 40t-10 50t-22.5 51.5t-42 37.5t-64.5 16q-34 0 -60.5 -12t-41 -33.5t-24 -42t-13 -47
t-4.5 -39t-1 -26.5q0 -18 1 -33t8.5 -47t20.5 -53.5t42 -39t68 -17.5q54 0 88.5 33t45.5 74t11 88z" />
    <glyph glyph-name="c" unicode="c" horiz-adv-x="500" 
d="M469 341h-95q-9 105 -100 105q-130 0 -130 -189q0 -199 125 -199q55 0 81 32.5t28 76.5h95q-5 -77 -59 -128.5t-144 -51.5q-106 0 -165 65q-60 70 -60 192q0 75 21 130t56 84.5t72.5 43t78.5 13.5q102 0 154 -62q37 -43 42 -112z" />
    <glyph glyph-name="d" unicode="d" horiz-adv-x="611" 
d="M436 434v287h94v-641q0 -28 4 -80h-94l-2 80q-21 -36 -45 -53q-54 -37 -124 -37q-24 0 -48.5 5t-56 21.5t-55 43t-40 74.5t-16.5 111q0 135 65.5 204.5t161.5 69.5q107 0 156 -85zM439 258q0 91 -38 140q-39 51 -110 51q-28 0 -51 -9.5t-37 -24t-24 -35.5t-15 -38
t-7.5 -39.5t-3 -32.5t-0.5 -22q0 -192 138 -192q42 0 72 18t44 40.5t22 56.5t9 50t1 37z" />
    <glyph glyph-name="e" unicode="e" 
d="M506 234h-361q-2 -82 34 -131.5t110 -49.5q48 0 80 26t38 78h94q-8 -67 -43 -105q-59 -67 -173 -67q-116 0 -174.5 67.5t-58.5 189.5q0 81 21.5 139t77.5 97q52 37 137 37q54 0 94.5 -15t62.5 -39.5t37 -55t18 -62t6 -60.5t0 -49zM149 300h261q0 23 -3.5 44t-14.5 47
t-38 41.5t-68 15.5q-54 0 -95 -36t-42 -112z" />
    <glyph glyph-name="f" unicode="f" horiz-adv-x="333" 
d="M339 727v-75q-32 2 -55 2q-27 0 -43.5 -5.5t-23 -18.5t-8 -22t-1.5 -27v-79h117v-68h-117v-434h-93v434h-99v68h99v57q0 52 4 76.5t17 43.5q36 55 126 55q30 0 77 -7z" />
    <glyph glyph-name="g" unicode="g" horiz-adv-x="611" 
d="M78 -39h100q3 -47 29 -72.5t88 -25.5q32 0 55 7t37.5 23.5t23 33t12 48t4.5 54t1 65.5q-41 -85 -165 -85q-104 0 -154 62q-57 68 -57 185q0 122 63 187.5t160 65.5q46 0 82 -15.5t48 -27.5t28 -33l1 69h91l-2 -91l-1 -314q0 -94 -4.5 -137t-19.5 -71q-47 -90 -209 -90
q-42 0 -75 6t-54.5 14t-37 23t-23.5 26.5t-12.5 31t-6 30.5t-2.5 31zM287 79q72 0 110 50q18 23 26 52t8 92q0 84 -39 125q-41 44 -108 44q-42 0 -71 -19t-41.5 -50t-17.5 -58.5t-5 -56.5q0 -33 6 -61.5t19.5 -56.5t42.5 -44.5t70 -16.5z" />
    <glyph glyph-name="h" unicode="h" horiz-adv-x="611" 
d="M88 0v721h95v-293q23 39 66.5 61t96.5 22q48 0 93 -19t65 -61q17 -34 17 -117v-314h-96v297q0 20 -0.5 33t-6.5 36t-16.5 37t-32 25t-52.5 11q-82 0 -118 -67q-16 -28 -16 -106v-266h-95z" />
    <glyph glyph-name="i" unicode="i" horiz-adv-x="278" 
d="M79 617v103h113v-103h-113zM89 0v502h94v-502h-94z" />
    <glyph glyph-name="j" unicode="j" horiz-adv-x="278" 
d="M82 616v104h114v-104h-114zM-1 -193v67q56 -2 74 14.5t18 75.5v538h94v-549q0 -20 -1 -34.5t-8 -38.5t-19.5 -39t-38 -26.5t-61.5 -11.5q-23 0 -58 4z" />
    <glyph glyph-name="k" unicode="k" horiz-adv-x="500" 
d="M81 0v727h93v-430l188 205h123l-212 -213l225 -289h-123l-201 271v-271h-93z" />
    <glyph glyph-name="l" unicode="l" horiz-adv-x="278" 
d="M90 0v721h94v-721h-94z" />
    <glyph glyph-name="m" unicode="m" horiz-adv-x="944" 
d="M87 0v435l-2 67h95v-73q52 86 159 86q39 0 69 -9t48.5 -25t28 -29t18.5 -31q57 94 169 94q31 0 60 -7.5t58.5 -25.5t47.5 -55.5t18 -89.5v-337h-95v322q0 51 -17 76q-31 44 -96 44q-69 0 -107 -53q-22 -31 -22 -108v-281h-95v332q0 49 -28.5 79.5t-81.5 30.5
q-70 0 -110 -55q-22 -30 -22 -102v-285h-95z" />
    <glyph glyph-name="n" unicode="n" horiz-adv-x="611" 
d="M91 0v444l-1 58h94l1 -81q48 91 161 91q17 0 36.5 -2.5t47 -13.5t48 -28t35.5 -50t15 -77v-341h-96v319q0 59 -27 86q-35 34 -89 34q-55 0 -93 -39t-38 -111v-289h-94z" />
    <glyph glyph-name="o" unicode="o" horiz-adv-x="611" 
d="M51 245q0 50 12.5 95t40.5 86t80 65t122 24q58 0 102.5 -17.5t71 -44.5t43.5 -63.5t23 -69.5t6 -68q0 -117 -65.5 -193t-188.5 -76q-120 0 -183.5 73t-63.5 189zM149 251q0 -84 38 -141t113 -57q62 0 107 49t45 153q0 92 -39.5 141.5t-106.5 49.5q-25 0 -50 -9t-50.5 -29
t-41 -60.5t-15.5 -96.5z" />
    <glyph glyph-name="p" unicode="p" horiz-adv-x="611" 
d="M85 -193v613q0 10 -3 82h95l2 -83q31 52 79 71.5t92 19.5q89 0 150 -64.5t61 -195.5q0 -132 -65.5 -200.5t-163.5 -68.5q-108 0 -154 75v-249h-93zM175 236q0 -186 141 -186q70 0 106 49q41 56 41 157q0 184 -138 184q-150 0 -150 -204z" />
    <glyph glyph-name="q" unicode="q" horiz-adv-x="611" 
d="M434 502h95q-2 -40 -2 -82v-613h-95v249q-19 -29 -41 -43q-46 -32 -113 -32q-98 0 -163.5 70t-65.5 202q0 129 61.5 193t149.5 64q114 0 171 -91zM435 241q0 199 -151 199q-38 0 -66 -16t-41 -36t-20.5 -49.5t-8.5 -45t-1 -34.5q0 -102 41 -160q34 -49 108 -49
q42 0 70.5 15t43 43.5t20 60t5.5 72.5z" />
    <glyph glyph-name="r" unicode="r" horiz-adv-x="389" 
d="M93 0v400q0 47 -5 102h95l2 -97q22 85 120 99q30 4 65 2v-92q-6 2 -18 4q-7 1 -27 1q-77 0 -107 -40t-30 -112v-267h-95z" />
    <glyph glyph-name="s" unicode="s" horiz-adv-x="500" 
d="M43 149h99q-1 -36 24 -63.5t86 -27.5q62 0 88 32q16 21 16 47q0 34 -23 47t-87 28q-41 9 -61.5 15t-50.5 18t-44.5 26t-25.5 37.5t-11 53.5q0 69 54.5 110.5t141.5 41.5q57 0 109 -18.5t72 -59.5q13 -28 13 -73h-96q1 27 -8.5 44.5t-27 25t-31 10t-30.5 2.5
q-12 0 -23 -1.5t-32 -7t-34 -22t-13 -41.5q0 -21 14 -35.5t25.5 -19t31.5 -9.5q110 -26 143.5 -37.5t55.5 -31.5q38 -35 38 -93q0 -40 -19.5 -74.5t-48.5 -52.5q-55 -34 -149 -34q-85 0 -141 39t-55 124z" />
    <glyph glyph-name="t" unicode="t" horiz-adv-x="333" 
d="M11 435v69h89v105l93 30v-135h112v-69h-112v-301q0 -14 1.5 -22t7 -20t20 -18.5t38.5 -6.5q25 0 45 5v-73q-34 -6 -78 -6q-67 0 -97 23.5t-30 83.5v335h-89z" />
    <glyph glyph-name="u" unicode="u" horiz-adv-x="611" 
d="M78 502h96v-323q0 -22 3.5 -38.5t13.5 -34.5t33 -28t57 -10q80 0 118 56q21 30 21 94v284h97v-408q0 -10 3 -94h-98l-2 86q-12 -24 -25.5 -40.5t-49 -33.5t-85.5 -17q-90 0 -136 46.5t-46 123.5v337z" />
    <glyph glyph-name="v" unicode="v" 
d="M222 0l-210 502h105l160 -398l156 398h104l-220 -502h-95z" />
    <glyph glyph-name="w" unicode="w" horiz-adv-x="833" 
d="M12 502h103l121 -400l127 400h123l114 -396l126 396h97l-177 -502h-108l-118 413l-131 -413h-111z" />
    <glyph glyph-name="x" unicode="x" 
d="M335 257l196 -257h-124l-143 201l-142 -201h-110l199 263l-188 239h123l134 -189l140 189h111z" />
    <glyph glyph-name="y" unicode="y" 
d="M537 502l-223 -505l-72 -187h-97l76 192l-209 500h106l157 -396l160 396h102z" />
    <glyph glyph-name="z" unicode="z" horiz-adv-x="444" 
d="M30 0v97l268 334h-254v71h361v-80l-277 -349h277v-73h-375z" />
    <glyph glyph-name="braceleft" unicode="{" horiz-adv-x="334" 
d="M-1 287v51q55 4 92 32q27 20 33.5 45t6.5 72v27q0 31 0.5 47t4.5 44t11 44t22 36.5t36.5 32t54 21t75.5 11.5v-51q-35 -3 -59.5 -15.5t-37 -26.5t-18.5 -39.5t-7 -41t-1 -44.5v-26q0 -31 -1 -48t-8 -46t-20 -46t-39.5 -32.5t-64.5 -20.5q38 -5 64.5 -20t39.5 -32
t20 -45.5t8 -46.5t1 -50v-31q0 -34 2.5 -53.5t13 -47t37.5 -42.5t70 -19v-51q-41 3 -72.5 11t-53 19t-36.5 29t-23 34.5t-12.5 41.5t-5.5 45t-1 49v34q0 21 -0.5 32.5t-4 30.5t-12 30.5t-22.5 24t-37.5 20t-55.5 11.5z" />
    <glyph glyph-name="bar" unicode="|" horiz-adv-x="260" 
d="M89 750h83v-1000h-83v1000z" />
    <glyph glyph-name="braceright" unicode="}" horiz-adv-x="334" 
d="M335 338v-51q-55 -4 -92 -32q-27 -20 -33.5 -45.5t-6.5 -71.5v-27q0 -31 -0.5 -47t-4.5 -44t-11 -44t-22 -36.5t-36.5 -32t-54 -21t-75.5 -11.5v51q35 3 59.5 15.5t37 26.5t18.5 39.5t7 41t1 44.5v26q0 25 0.5 39.5t4 39t12 40t22.5 33t38 28t56 14.5q-27 3 -48.5 12
t-35.5 19t-23.5 27t-14.5 30.5t-7.5 35t-3 34.5t-0.5 35v31q0 34 -2.5 53.5t-13 47t-37.5 42.5t-70 19v51q41 -3 72.5 -11t53 -19t36.5 -29t23 -34.5t12.5 -41.5t5.5 -45t1 -49v-34q0 -21 0.5 -32.5t4 -30.5t12 -30.5t22.5 -24t37.5 -20t55.5 -11.5z" />
    <glyph glyph-name="asciitilde" unicode="~" horiz-adv-x="584" 
d="M82 174h-55q10 70 40 107q37 44 92 44q25 0 46 -5.5t99 -30.5q101 -34 126 -34q59 0 73 73h54q-5 -46 -20.5 -78t-37 -46.5t-39.5 -20t-36 -5.5q-43 0 -161 41q-88 30 -108 30q-24 0 -45.5 -18.5t-27.5 -56.5z" />
    <glyph glyph-name="uni00A0" unicode="&#xa0;" horiz-adv-x="278" 
 />
    <glyph glyph-name="exclamdown" unicode="&#xa1;" horiz-adv-x="389" 
d="M134 402v100h106v-100h-106zM148 337h73l17 -557h-111z" />
    <glyph glyph-name="cent" unicode="&#xa2;" 
d="M497 341h-95q-6 47 -28 72l-100 -353q14 -3 22 -3q48 0 78.5 28.5t31.5 81.5h95q-5 -77 -59 -128.5t-146 -51.5q-24 0 -41 3l-39 -136h-49l42 148q-41 15 -70 44t-42.5 65.5t-19 68t-5.5 64.5q0 132 68 204q64 67 162 67q18 0 51 -5l34 120h48l-38 -135q37 -16 67 -53
t33 -101zM230 78l103 362q-18 6 -35 6q-55 0 -90 -44q-36 -45 -36 -142q0 -139 58 -182z" />
    <glyph glyph-name="sterling" unicode="&#xa3;" 
d="M106 347h-74v67h76q-4 104 8 155q3 12 8 26t21 37.5t37.5 41t60.5 31t87 13.5q117 0 178 -66q32 -34 32 -96h-98q-1 43 -30.5 70.5t-79.5 27.5q-64 0 -98 -42q-21 -26 -25.5 -53t-4.5 -103v-42h141v-67h-141v-280h319v-67h-484v68h67v279z" />
    <glyph glyph-name="currency" unicode="&#xa4;" 
d="M40 157l65 65q-40 60 -40 124q0 68 40 125l-65 65l49 49l65 -65q57 39 125 39q60 0 124 -40l64 65l49 -49l-65 -65q40 -53 40 -124q0 -65 -40 -123l65 -66l-49 -49l-65 65q-59 -40 -123 -40q-69 0 -124 40l-66 -65zM278 485q-57 0 -98 -40.5t-41 -98.5q0 -57 40.5 -98
t98.5 -41t98.5 40.5t40.5 98.5t-41 98.5t-98 40.5z" />
    <glyph glyph-name="yen" unicode="&#xa5;" 
d="M44 164v61h183v55h-183v62h154l-198 380h124l158 -354l161 354h113l-196 -380h151v-62h-183v-55h183v-61h-183v-164h-101v164h-183z" />
    <glyph glyph-name="brokenbar" unicode="&#xa6;" horiz-adv-x="260" 
d="M89 675h83v-350h-83v350zM89 175h83v-350h-83v350z" />
    <glyph glyph-name="section" unicode="&#xa7;" 
d="M111 0v86q64 -32 133 -32q32 0 54.5 9.5t31 24t11.5 24.5t3 18q0 21 -13 36.5t-28 23t-38 14.5l-68 21q-20 7 -31 12t-31 18t-30 35t-10 51q0 90 109 130q-94 28 -94 115q0 66 48.5 102.5t131.5 36.5q61 0 119 -17v-78q-72 28 -111 28q-91 0 -91 -66q0 -21 10 -34.5
t20.5 -18.5t31.5 -12l63 -21q19 -6 31.5 -12t31.5 -19t29 -35.5t10 -52.5q0 -98 -102 -128q20 -6 33.5 -12t34 -20.5t32 -38.5t11.5 -57q0 -67 -54.5 -109.5t-152.5 -42.5q-62 0 -125 21zM266 282q85 31 85 88q0 18 -6.5 31t-22 22t-26.5 13.5t-33 11.5q-17 -7 -26.5 -12
t-24.5 -15.5t-22.5 -26t-7.5 -34.5q0 -55 84 -78z" />
    <glyph glyph-name="dieresis" unicode="&#xa8;" horiz-adv-x="278" 
d="M-3 617v102h92v-102h-92zM186 617v102h93v-102h-93z" />
    <glyph glyph-name="copyright" unicode="&#xa9;" horiz-adv-x="800" 
d="M33 362q0 156 111 267.5t269 111.5q157 0 268 -111t111 -268t-111 -268t-268 -111q-158 0 -269 111.5t-111 267.5zM78 362q0 -138 97.5 -236t237.5 -98q138 0 236 98t98 236q0 137 -98 235.5t-236 98.5q-140 0 -237.5 -98t-97.5 -236zM556 463h-59q-1 9 -3.5 18.5t-10 24
t-26 23.5t-45.5 9q-34 0 -57.5 -17.5t-34.5 -46.5t-15 -56.5t-4 -58.5q0 -169 111 -169q25 0 42.5 8.5t25.5 22.5t11 22.5t4 17.5h60q-6 -59 -48.5 -89.5t-99.5 -30.5q-49 0 -83.5 21.5t-51 57.5t-23.5 69.5t-7 69.5q0 37 7.5 73t25 72.5t53.5 59t87 22.5q52 0 94 -28.5
t47 -94.5z" />
    <glyph glyph-name="ordfeminine" unicode="&#xaa;" horiz-adv-x="334" 
d="M299 431h-55q-6 21 -6 45q-32 -55 -102 -55q-48 0 -80.5 23.5t-32.5 66.5q0 40 27 65t61.5 33.5t77.5 8.5q32 0 48 -2q0 19 -0.5 29t-4 23t-10.5 19t-20 10.5t-32 4.5q-63 0 -67 -50h-61q3 51 43 71q31 18 85 18q95 0 118 -48q10 -22 8 -43l-2 -143q0 -36 5 -76zM237 577
q-18 0 -52 2t-67.5 -13.5t-33.5 -47.5q0 -19 15.5 -35.5t52.5 -16.5q54 0 75 41q8 19 10 70z" />
    <glyph glyph-name="guillemotleft" unicode="&#xab;" 
d="M274 53h-80l-111 196l111 194h79l-97 -194zM470 53h-80l-111 196l111 194h79l-97 -194z" />
    <glyph glyph-name="logicalnot" unicode="&#xac;" horiz-adv-x="584" 
d="M37 314v77h510v-280h-80v203h-430z" />
    <glyph glyph-name="uni00AD" unicode="&#xad;" horiz-adv-x="333" 
d="M42 225v76h251v-76h-251z" />
    <glyph glyph-name="registered" unicode="&#xae;" horiz-adv-x="800" 
d="M273 163v406h144q138 0 138 -102q0 -76 -76 -98q31 -7 44 -23.5t18 -54.5q11 -90 24 -128h-58q-11 37 -20 106q-5 47 -22 62.5t-66 15.5h-70v-184h-56zM329 521v-126h88q15 0 25 1t25 6.5t22.5 19t7.5 35.5q0 23 -7.5 37t-22 19.5t-24.5 6.5t-26 1h-88zM411 741
q156 0 267 -110.5t111 -267.5q0 -158 -111.5 -269t-266.5 -111q-154 0 -266 111t-112 269q0 157 112.5 267.5t265.5 110.5zM411 696q-137 0 -235 -98t-98 -235q0 -140 98 -238t235 -98q138 0 235.5 98.5t97.5 237.5q0 136 -97 234.5t-236 98.5z" />
    <glyph glyph-name="macron" unicode="&#xaf;" horiz-adv-x="278" 
d="M0 642v53h275v-53h-275z" />
    <glyph glyph-name="degree" unicode="&#xb0;" horiz-adv-x="400" 
d="M200 706q65 0 110.5 -45.5t45.5 -110.5q0 -64 -45.5 -110t-110.5 -46q-64 0 -110 46t-46 110q0 65 45.5 110.5t110.5 45.5zM200 637q-36 0 -61.5 -25.5t-25.5 -61.5t25.5 -61.5t61.5 -25.5t61.5 25.5t25.5 61.5t-25.5 61.5t-61.5 25.5z" />
    <glyph glyph-name="plusminus" unicode="&#xb1;" horiz-adv-x="584" 
d="M250 104v166h-213v77h213v168h84v-168h213v-77h-213v-166h-84zM37 -13v77h510v-77h-510z" />
    <glyph glyph-name="twosuperior" unicode="&#xb2;" horiz-adv-x="333" 
d="M24 284v54l117 107q62 55 82.5 86t20.5 60q0 32 -20 49.5t-53 17.5q-25 0 -41 -8.5t-22 -24t-7.5 -22t-2.5 -17.5h-68q2 37 17 63t38.5 37t43.5 15.5t40 4.5q62 0 101 -31t39 -89q0 -45 -50 -103q-34 -39 -85 -83l-78 -69h214v-47h-286z" />
    <glyph glyph-name="threesuperior" unicode="&#xb3;" horiz-adv-x="333" 
d="M12 390h68q0 -33 22.5 -50.5t62.5 -17.5q43 0 65.5 22t22.5 53q0 83 -127 75v49q7 -3 26.5 -0.5t40.5 7t37 21.5t16 44q0 36 -24 51t-55 15q-35 0 -58 -18t-24 -48h-66q1 42 27 69t56 35.5t63 8.5q70 0 108.5 -33t38.5 -79q0 -31 -21.5 -59t-68.5 -38q27 -4 46.5 -15.5
t29 -23.5t14.5 -27.5t5.5 -22t0.5 -12.5q0 -52 -43.5 -87.5t-115.5 -35.5q-81 0 -121 44q-23 25 -26 73z" />
    <glyph glyph-name="acute" unicode="&#xb4;" horiz-adv-x="278" 
d="M162 740h104l-121 -144h-65z" />
    <glyph glyph-name="mu" unicode="&#xb5;" horiz-adv-x="611" 
d="M89 -209v711h80v-242q0 -106 23 -146q33 -56 101 -56q72 0 109 63q25 43 25 141v240h81v-502h-74v70q-56 -81 -143 -81q-35 0 -62.5 13t-36.5 22.5t-23 27.5v-261h-80z" />
    <glyph glyph-name="paragraph" unicode="&#xb6;" horiz-adv-x="537" 
d="M526 658h-54v-826h-78v826h-117v-826h-79v432q-56 4 -97 25.5t-63.5 54.5t-32.5 68t-10 74q0 31 7 62t25.5 63t46.5 56t74.5 39.5t105.5 15.5h272v-64z" />
    <glyph glyph-name="periodcentered" unicode="&#xb7;" horiz-adv-x="278" 
d="M81 231v121h111v-121h-111z" />
    <glyph glyph-name="cedilla" unicode="&#xb8;" horiz-adv-x="278" 
d="M22 -194l20 37q26 -14 67 -14q53 0 53 40q0 39 -51 39q-15 0 -36 -8l-15 17l63 88h42l-45 -63q28 5 40 5q40 0 59 -22t19 -49q0 -6 -1 -13t-7.5 -22t-18 -26t-36.5 -20t-59 -9q-48 0 -94 20z" />
    <glyph glyph-name="onesuperior" unicode="&#xb9;" horiz-adv-x="333" 
d="M225 284h-62v350q-47 -35 -105 -61v61q66 31 109 65h58v-415z" />
    <glyph glyph-name="ordmasculine" unicode="&#xba;" horiz-adv-x="367" 
d="M208 740q48 0 82 -16t50.5 -42t23 -50.5t6.5 -50.5q0 -71 -43.5 -116t-119.5 -45q-82 0 -122.5 45.5t-40.5 112.5q0 69 41 115.5t123 46.5zM206 463q40 0 69.5 29.5t29.5 90.5q0 47 -21.5 81t-74.5 34q-50 0 -75.5 -34.5t-25.5 -81.5t23 -83t75 -36z" />
    <glyph glyph-name="guillemotright" unicode="&#xbb;" 
d="M81 443h80l111 -195l-111 -195h-79l97 195zM277 443h79l112 -195l-112 -195h-78l97 195z" />
    <glyph glyph-name="onequarter" unicode="&#xbc;" horiz-adv-x="834" 
d="M736 0h-62v90h-203v71l195 260h70v-282h66v-49h-66v-90zM520 139h155v218zM146 -28l430 743h64l-429 -743h-65zM191 284h-62v350q-51 -38 -105 -61v61q63 29 110 65h57v-415z" />
    <glyph glyph-name="onehalf" unicode="&#xbd;" horiz-adv-x="834" 
d="M146 -28l430 743h64l-429 -743h-65zM191 284h-62v350q-51 -38 -105 -61v61q63 29 110 65h57v-415zM525 0v55l117 106q62 56 82.5 87t20.5 59q0 32 -20 49.5t-53 17.5q-20 0 -34.5 -6.5t-21.5 -14t-11 -20.5t-4.5 -17.5l-1.5 -13.5h-68q1 30 12.5 53.5t26 35.5t34.5 20
t35.5 10t30.5 2q62 0 101 -31t39 -89q0 -23 -9.5 -45t-40.5 -59q-30 -34 -85 -82l-78 -70h214v-47h-286z" />
    <glyph glyph-name="threequarters" unicode="&#xbe;" horiz-adv-x="834" 
d="M747 0h-62v90h-203v71l195 260h70v-282h66v-49h-66v-90zM532 139h154v218zM176 -28l429 743h65l-429 -743h-65zM12 390h69q-1 -33 21.5 -50.5t62.5 -17.5q43 0 65.5 22t22.5 53q0 83 -127 75v49q7 -3 26.5 -0.5t40.5 7t37 21.5t16 44q0 66 -79 66q-35 0 -58 -18t-24 -48
h-66q1 42 27 69t56 35.5t63 8.5q70 0 108.5 -33t38.5 -79q0 -31 -21.5 -59t-68.5 -38q27 -4 46.5 -15.5t29 -23.5t14.5 -27.5t5.5 -22t0.5 -12.5q0 -52 -43.5 -87.5t-115.5 -35.5q-79 0 -121 44q-23 26 -26 73z" />
    <glyph glyph-name="questiondown" unicode="&#xbf;" horiz-adv-x="500" 
d="M438 -123v-90q-75 -21 -142 -21q-128 0 -187 62q-45 48 -45 117q0 54 24.5 91t96.5 108q1 1 15.5 16t27.5 28l13 13q8 11 8 31v106h83v-105q0 -31 -7 -46t-45 -55q-47 -51 -65.5 -72.5t-33 -50t-14.5 -56.5q0 -35 16.5 -58.5t43 -32t42.5 -11t33 -2.5q67 0 136 28z
M340 502v-102h-104v102h104z" />
    <glyph glyph-name="Agrave" unicode="&#xc0;" horiz-adv-x="722" 
d="M9 0l304 722h107l292 -722h-109l-78 188h-335l-78 -188h-103zM362 623l-140 -354h273zM224 930h113l84 -144h-62z" />
    <glyph glyph-name="Aacute" unicode="&#xc1;" horiz-adv-x="722" 
d="M9 0l304 722h107l292 -722h-109l-78 188h-335l-78 -188h-103zM362 623l-140 -354h273zM384 930h104l-121 -144h-65z" />
    <glyph glyph-name="Acircumflex" unicode="&#xc2;" horiz-adv-x="722" 
d="M9 0l304 722h107l292 -722h-109l-78 188h-335l-78 -188h-103zM362 623l-140 -354h273zM286 786h-77l106 145h90l104 -145h-86l-66 96z" />
    <glyph glyph-name="Atilde" unicode="&#xc3;" horiz-adv-x="722" 
d="M9 0l304 722h107l292 -722h-109l-78 188h-335l-78 -188h-103zM362 623l-140 -354h273zM262 802h-42q2 43 24 70q23 28 61 28q15 0 77 -17q26 -7 37 -7q37 0 37 37h41q1 -52 -25 -76.5t-59 -24.5q-21 0 -63 13q-8 2 -20 5.5t-19.5 5.5t-10.5 2q-27 0 -38 -36z" />
    <glyph glyph-name="Adieresis" unicode="&#xc4;" horiz-adv-x="722" 
d="M9 0l304 722h107l292 -722h-109l-78 188h-335l-78 -188h-103zM362 623l-140 -354h273zM219 797v102h92v-102h-92zM408 797v102h93v-102h-93z" />
    <glyph glyph-name="Aring" unicode="&#xc5;" horiz-adv-x="722" 
d="M9 0l304 722h107l292 -722h-109l-78 188h-335l-78 -188h-103zM362 623l-140 -354h273zM263 849q0 41 28.5 69.5t69.5 28.5t69.5 -28.5t28.5 -69.5t-28.5 -69.5t-69.5 -28.5t-69.5 28.5t-28.5 69.5zM303 849q0 -24 17 -41t41 -17t41 17t17 41t-17 41t-41 17t-41 -17
t-17 -41z" />
    <glyph glyph-name="AE" unicode="&#xc6;" horiz-adv-x="1000" 
d="M547 201h-320l-115 -201h-110l421 722h520v-85h-371l38 -223h319v-85h-304l42 -243h287v-86h-373zM273 282h259l-57 366z" />
    <glyph glyph-name="Ccedilla" unicode="&#xc7;" horiz-adv-x="667" 
d="M518 190h110q-10 -95 -80.5 -145t-166.5 -56l-34 -47q25 5 39 5q40 0 59.5 -22t19.5 -49q0 -6 -1 -13t-7.5 -22t-18.5 -26t-37 -20t-59 -9q-48 0 -94 20l20 37q26 -14 67 -14q54 0 54 40q0 39 -51 39q-16 0 -37 -8l-15 17l52 72q-63 3 -113 26.5t-81.5 59t-52 83.5
t-28.5 95.5t-8 99.5q0 50 7.5 98t29.5 100.5t56 91t91.5 64t131.5 25.5q42 0 82 -9.5t80 -31t66 -64t31 -100.5h-107q-2 14 -4 23t-12.5 31t-25.5 35t-45 24.5t-69 11.5q-50 0 -88 -20t-59.5 -50t-35 -71.5t-18 -79t-4.5 -77.5q0 -56 9 -102.5t30.5 -89t63.5 -67t101 -24.5
q75 0 117 43q27 29 35 76z" />
    <glyph glyph-name="Egrave" unicode="&#xc8;" horiz-adv-x="611" 
d="M76 0v722h453v-85h-353v-225h336v-84h-336v-240h361v-88h-461zM169 930h113l84 -144h-62z" />
    <glyph glyph-name="Eacute" unicode="&#xc9;" horiz-adv-x="611" 
d="M76 0v722h453v-85h-353v-225h336v-84h-336v-240h361v-88h-461zM329 930h104l-121 -144h-65z" />
    <glyph glyph-name="Ecircumflex" unicode="&#xca;" horiz-adv-x="611" 
d="M76 0v722h453v-85h-353v-225h336v-84h-336v-240h361v-88h-461zM231 786h-77l106 145h90l104 -145h-86l-66 96z" />
    <glyph glyph-name="Edieresis" unicode="&#xcb;" horiz-adv-x="611" 
d="M76 0v722h453v-85h-353v-225h336v-84h-336v-240h361v-88h-461zM164 797v102h92v-102h-92zM353 797v102h93v-102h-93z" />
    <glyph glyph-name="Igrave" unicode="&#xcc;" horiz-adv-x="278" 
d="M88 0v722h100v-722h-100zM2 930h113l84 -144h-62z" />
    <glyph glyph-name="Iacute" unicode="&#xcd;" horiz-adv-x="278" 
d="M88 0v722h100v-722h-100zM162 930h104l-121 -144h-65z" />
    <glyph glyph-name="Icircumflex" unicode="&#xce;" horiz-adv-x="278" 
d="M88 0v722h100v-722h-100zM64 786h-77l106 145h90l104 -145h-86l-66 96z" />
    <glyph glyph-name="Idieresis" unicode="&#xcf;" horiz-adv-x="278" 
d="M88 0v722h100v-722h-100zM-3 797v102h92v-102h-92zM186 797v102h93v-102h-93z" />
    <glyph glyph-name="Eth" unicode="&#xd0;" horiz-adv-x="722" 
d="M88 0v369h-70v61h70v292h209q50 0 78 -2t71.5 -9.5t78.5 -28.5t63 -54q89 -104 89 -273q0 -107 -35.5 -182t-84.5 -114q-33 -28 -80 -41.5t-82 -15.5t-104 -2h-203zM188 369v-287h98q136 0 189 40q95 71 95 229q0 148 -70 225q-33 36 -77.5 49.5t-114.5 13.5h-120v-209
h192v-61h-192z" />
    <glyph glyph-name="Ntilde" unicode="&#xd1;" horiz-adv-x="778" 
d="M95 0v722h139l355 -597v597h92v-722h-128l-367 613v-613h-91zM290 802h-42q2 43 24 70q23 28 61 28q15 0 77 -17q26 -7 37 -7q37 0 37 37h41q1 -52 -25 -76.5t-59 -24.5q-21 0 -63 13q-8 2 -20 5.5t-19.5 5.5t-10.5 2q-27 0 -38 -36z" />
    <glyph glyph-name="Ograve" unicode="&#xd2;" horiz-adv-x="778" 
d="M59 356q0 188 93 288q90 97 241 97q153 0 239.5 -96t86.5 -277q0 -77 -16.5 -142t-53.5 -121.5t-104.5 -89t-159.5 -32.5q-89 0 -154 30t-101.5 83t-53.5 117.5t-17 142.5zM164 362q0 -149 64 -228q53 -66 160 -66q105 0 160 66q65 79 65 235q0 288 -219 288
q-53 0 -94 -17t-66 -44t-41.5 -66.5t-22.5 -80t-6 -87.5zM252 930h113l84 -144h-62z" />
    <glyph glyph-name="Oacute" unicode="&#xd3;" horiz-adv-x="778" 
d="M59 356q0 188 93 288q90 97 241 97q153 0 239.5 -96t86.5 -277q0 -77 -16.5 -142t-53.5 -121.5t-104.5 -89t-159.5 -32.5q-89 0 -154 30t-101.5 83t-53.5 117.5t-17 142.5zM164 362q0 -149 64 -228q53 -66 160 -66q105 0 160 66q65 79 65 235q0 288 -219 288
q-53 0 -94 -17t-66 -44t-41.5 -66.5t-22.5 -80t-6 -87.5zM412 930h104l-121 -144h-65z" />
    <glyph glyph-name="Ocircumflex" unicode="&#xd4;" horiz-adv-x="778" 
d="M59 356q0 188 93 288q90 97 241 97q153 0 239.5 -96t86.5 -277q0 -77 -16.5 -142t-53.5 -121.5t-104.5 -89t-159.5 -32.5q-89 0 -154 30t-101.5 83t-53.5 117.5t-17 142.5zM164 362q0 -149 64 -228q53 -66 160 -66q105 0 160 66q65 79 65 235q0 288 -219 288
q-53 0 -94 -17t-66 -44t-41.5 -66.5t-22.5 -80t-6 -87.5zM314 786h-77l106 145h90l104 -145h-86l-66 96z" />
    <glyph glyph-name="Otilde" unicode="&#xd5;" horiz-adv-x="778" 
d="M59 356q0 188 93 288q90 97 241 97q153 0 239.5 -96t86.5 -277q0 -77 -16.5 -142t-53.5 -121.5t-104.5 -89t-159.5 -32.5q-89 0 -154 30t-101.5 83t-53.5 117.5t-17 142.5zM164 362q0 -149 64 -228q53 -66 160 -66q105 0 160 66q65 79 65 235q0 288 -219 288
q-53 0 -94 -17t-66 -44t-41.5 -66.5t-22.5 -80t-6 -87.5zM290 802h-42q2 43 24 70q23 28 61 28q15 0 77 -17q26 -7 37 -7q37 0 37 37h41q1 -52 -25 -76.5t-59 -24.5q-21 0 -63 13q-8 2 -20 5.5t-19.5 5.5t-10.5 2q-27 0 -38 -36z" />
    <glyph glyph-name="Odieresis" unicode="&#xd6;" horiz-adv-x="778" 
d="M59 356q0 188 93 288q90 97 241 97q153 0 239.5 -96t86.5 -277q0 -77 -16.5 -142t-53.5 -121.5t-104.5 -89t-159.5 -32.5q-89 0 -154 30t-101.5 83t-53.5 117.5t-17 142.5zM164 362q0 -149 64 -228q53 -66 160 -66q105 0 160 66q65 79 65 235q0 288 -219 288
q-53 0 -94 -17t-66 -44t-41.5 -66.5t-22.5 -80t-6 -87.5zM247 797v102h92v-102h-92zM436 797v102h93v-102h-93z" />
    <glyph glyph-name="multiply" unicode="&#xd7;" horiz-adv-x="584" 
d="M47 65l186 186l-186 186l57 57l186 -185l186 185l58 -57l-186 -186l185 -186l-57 -57l-186 186l-186 -186z" />
    <glyph glyph-name="Oslash" unicode="&#xd8;" horiz-adv-x="778" 
d="M638 799h62l-86 -136q105 -96 105 -300q0 -53 -8.5 -102t-31 -101t-58.5 -90t-96 -62.5t-137 -24.5q-97 0 -183 44l-74 -115h-63l95 147q-19 19 -31.5 35.5t-32 52t-30 89.5t-10.5 122q0 193 98 293q89 90 234 90q102 0 180 -46zM219 147l304 472q-46 38 -132 38
q-52 0 -92.5 -17t-65.5 -45t-41 -67.5t-22 -80t-6 -86.5q0 -137 55 -214zM559 579l-303 -472q48 -39 133 -39q65 0 111.5 26t69.5 71.5t33 94t10 107.5q0 135 -54 212z" />
    <glyph glyph-name="Ugrave" unicode="&#xd9;" horiz-adv-x="778" 
d="M93 722h100v-447q0 -85 32 -130q53 -71 165 -71q195 0 195 205v443h97v-445q0 -119 -59 -192q-80 -100 -233 -100q-68 0 -139 25.5t-116 89.5q-42 61 -42 182v440zM252 930h113l84 -144h-62z" />
    <glyph glyph-name="Uacute" unicode="&#xda;" horiz-adv-x="778" 
d="M93 722h100v-447q0 -85 32 -130q53 -71 165 -71q195 0 195 205v443h97v-445q0 -119 -59 -192q-80 -100 -233 -100q-68 0 -139 25.5t-116 89.5q-42 61 -42 182v440zM412 930h104l-121 -144h-65z" />
    <glyph glyph-name="Ucircumflex" unicode="&#xdb;" horiz-adv-x="778" 
d="M93 722h100v-447q0 -85 32 -130q53 -71 165 -71q195 0 195 205v443h97v-445q0 -119 -59 -192q-80 -100 -233 -100q-68 0 -139 25.5t-116 89.5q-42 61 -42 182v440zM314 786h-77l106 145h90l104 -145h-86l-66 96z" />
    <glyph glyph-name="Udieresis" unicode="&#xdc;" horiz-adv-x="778" 
d="M93 722h100v-447q0 -85 32 -130q53 -71 165 -71q195 0 195 205v443h97v-445q0 -119 -59 -192q-80 -100 -233 -100q-68 0 -139 25.5t-116 89.5q-42 61 -42 182v440zM247 797v102h92v-102h-92zM436 797v102h93v-102h-93z" />
    <glyph glyph-name="Yacute" unicode="&#xdd;" horiz-adv-x="667" 
d="M289 0v284l-282 438h124l213 -354l216 354h112l-282 -443v-279h-101zM357 930h104l-121 -144h-65z" />
    <glyph glyph-name="Thorn" unicode="&#xde;" horiz-adv-x="611" 
d="M88 719h100v-118h142q81 0 123.5 -12.5t73.5 -45.5q53 -54 53 -140q0 -84 -57 -141q-31 -31 -78.5 -46.5t-139.5 -15.5h-117v-200h-100v719zM188 520v-236h119q25 0 43 1.5t43.5 8t41.5 19t27.5 36.5t11.5 58q0 32 -11 55t-24.5 34t-37.5 16.5t-37.5 6.5t-35.5 1h-140z
" />
    <glyph glyph-name="germandbls" unicode="&#xdf;" horiz-adv-x="667" 
d="M90 0v528q0 30 3 53.5t16.5 54t36.5 50.5t67.5 34.5t105.5 14.5q53 0 98 -12t79.5 -47t34.5 -90q0 -35 -13 -57.5t-41 -43.5q-45 -34 -57 -47.5t-12 -33.5q0 -26 26 -43l87 -57q50 -32 70 -63t20 -75q0 -81 -57 -128t-139 -47q-119 0 -152 80q-12 30 -12 73h92
q-1 -40 21.5 -61.5t59.5 -21.5q49 0 70.5 28.5t21.5 61.5q0 25 -11.5 44.5t-23 29t-33.5 23.5l-60 37q-76 46 -76 106q0 27 13 50t26.5 35t43.5 34q17 12 24.5 19t13.5 20t6 30q0 40 -31 66t-93 26q-71 0 -101 -33.5t-30 -112.5v-525h-94z" />
    <glyph glyph-name="agrave" unicode="&#xe0;" 
d="M479 0h-85q-9 32 -9 75q-49 -91 -155 -91q-84 0 -130.5 41.5t-46.5 106.5q0 96 88 147q59 33 174 33q25 0 68 -3q0 53 -3 74.5t-15 36.5q-25 33 -87 33q-97 0 -101 -85h-94q7 62 35 95q49 54 162 54q59 0 109 -19t69 -55q17 -32 17 -77l-4 -240q0 -68 8 -126zM383 244
q-25 3 -54 3q-181 0 -181 -102q0 -32 24 -59.5t80 -27.5q72 0 107 54q15 24 18.5 48.5t5.5 83.5zM141 740h113l84 -144h-62z" />
    <glyph glyph-name="aacute" unicode="&#xe1;" 
d="M479 0h-85q-9 32 -9 75q-49 -91 -155 -91q-84 0 -130.5 41.5t-46.5 106.5q0 96 88 147q59 33 174 33q25 0 68 -3q0 53 -3 74.5t-15 36.5q-25 33 -87 33q-97 0 -101 -85h-94q7 62 35 95q49 54 162 54q59 0 109 -19t69 -55q17 -32 17 -77l-4 -240q0 -68 8 -126zM383 244
q-25 3 -54 3q-181 0 -181 -102q0 -32 24 -59.5t80 -27.5q72 0 107 54q15 24 18.5 48.5t5.5 83.5zM301 740h104l-121 -144h-65z" />
    <glyph glyph-name="acircumflex" unicode="&#xe2;" 
d="M479 0h-85q-9 32 -9 75q-49 -91 -155 -91q-84 0 -130.5 41.5t-46.5 106.5q0 96 88 147q59 33 174 33q25 0 68 -3q0 53 -3 74.5t-15 36.5q-25 33 -87 33q-97 0 -101 -85h-94q7 62 35 95q49 54 162 54q59 0 109 -19t69 -55q17 -32 17 -77l-4 -240q0 -68 8 -126zM383 244
q-25 3 -54 3q-181 0 -181 -102q0 -32 24 -59.5t80 -27.5q72 0 107 54q15 24 18.5 48.5t5.5 83.5zM203 596h-77l106 145h90l104 -145h-86l-66 96z" />
    <glyph glyph-name="atilde" unicode="&#xe3;" 
d="M479 0h-85q-9 32 -9 75q-49 -91 -155 -91q-84 0 -130.5 41.5t-46.5 106.5q0 96 88 147q59 33 174 33q25 0 68 -3q0 53 -3 74.5t-15 36.5q-25 33 -87 33q-97 0 -101 -85h-94q7 62 35 95q49 54 162 54q59 0 109 -19t69 -55q17 -32 17 -77l-4 -240q0 -68 8 -126zM383 244
q-25 3 -54 3q-181 0 -181 -102q0 -32 24 -59.5t80 -27.5q72 0 107 54q15 24 18.5 48.5t5.5 83.5zM179 612h-42q2 43 24 70q23 28 61 28q15 0 77 -17q26 -7 37 -7q37 0 37 37h41q1 -52 -25 -76.5t-59 -24.5q-21 0 -63 13q-8 2 -20 5.5t-19.5 5.5t-10.5 2q-27 0 -38 -36z" />
    <glyph glyph-name="adieresis" unicode="&#xe4;" 
d="M479 0h-85q-9 32 -9 75q-49 -91 -155 -91q-84 0 -130.5 41.5t-46.5 106.5q0 96 88 147q59 33 174 33q25 0 68 -3q0 53 -3 74.5t-15 36.5q-25 33 -87 33q-97 0 -101 -85h-94q7 62 35 95q49 54 162 54q59 0 109 -19t69 -55q17 -32 17 -77l-4 -240q0 -68 8 -126zM383 244
q-25 3 -54 3q-181 0 -181 -102q0 -32 24 -59.5t80 -27.5q72 0 107 54q15 24 18.5 48.5t5.5 83.5zM136 617v102h92v-102h-92zM325 617v102h93v-102h-93z" />
    <glyph glyph-name="aring" unicode="&#xe5;" 
d="M479 0h-85q-9 32 -9 75q-49 -91 -155 -91q-84 0 -130.5 41.5t-46.5 106.5q0 96 88 147q59 33 174 33q25 0 68 -3q0 53 -3 74.5t-15 36.5q-25 33 -87 33q-97 0 -101 -85h-94q7 62 35 95q49 54 162 54q59 0 109 -19t69 -55q17 -32 17 -77l-4 -240q0 -68 8 -126zM383 244
q-25 3 -54 3q-181 0 -181 -102q0 -32 24 -59.5t80 -27.5q72 0 107 54q15 24 18.5 48.5t5.5 83.5zM180 669q0 41 29 69.5t69 28.5t69 -28.5t29 -69.5t-29 -69.5t-69 -28.5t-69 28.5t-29 69.5zM220 669q0 -24 17 -41t41 -17t41 17t17 41t-17 41t-41 17t-41 -17t-17 -41z" />
    <glyph glyph-name="ae" unicode="&#xe6;" horiz-adv-x="889" 
d="M734 155h96q-7 -52 -30 -88t-55 -52.5t-58.5 -22.5t-53.5 -6q-17 0 -33.5 2.5t-49.5 12t-61.5 36t-44.5 67.5q-49 -117 -195 -117q-103 0 -151 47t-48 110q0 56 38.5 100t113.5 56q53 8 132 8q11 0 34 -0.5t32 -0.5q0 21 -1.5 36t-8 36.5t-18.5 34.5t-36 23t-57 10
q-103 0 -108 -78h-93q7 76 59 110q53 35 137 35q146 0 179 -104q16 36 43 60t56.5 32.5t44.5 10.5t29 2q50 0 102 -24t80 -82q25 -51 25 -172h-347q3 -80 24 -116q18 -33 48.5 -50t64.5 -17q56 0 83 31.5t28 69.5zM488 304h248q0 49 -13 77q-27 64 -102 64q-68 0 -107 -54
q-21 -29 -26 -87zM400 241q-97 0 -119 -1q-139 -10 -139 -98q0 -45 34.5 -66.5t79.5 -21.5q79 0 119 64q25 39 25 123z" />
    <glyph glyph-name="ccedilla" unicode="&#xe7;" horiz-adv-x="500" 
d="M378 167h95q-4 -73 -53.5 -123.5t-133.5 -55.5l-33 -46q25 5 39 5q40 0 59.5 -22t19.5 -49q0 -6 -1 -13t-7.5 -22t-18 -26t-37 -20t-59.5 -9q-49 0 -93 20l19 37q28 -14 67 -14q54 0 54 40q0 39 -51 39q-15 0 -36 -8l-15 17l51 71q-56 6 -96.5 29.5t-62 59.5t-31 76
t-9.5 87q0 79 22 136t58 85.5t72.5 41t75.5 12.5q102 0 154 -62q37 -43 42 -112h-95q-9 105 -100 105q-130 0 -130 -189q0 -199 125 -199q55 0 81 32.5t28 76.5z" />
    <glyph glyph-name="egrave" unicode="&#xe8;" 
d="M506 234h-361q-2 -82 34 -131.5t110 -49.5q48 0 80 26t38 78h94q-8 -67 -43 -105q-59 -67 -173 -67q-116 0 -174.5 67.5t-58.5 189.5q0 81 21.5 139t77.5 97q52 37 137 37q54 0 94.5 -15t62.5 -39.5t37 -55t18 -62t6 -60.5t0 -49zM149 300h261q0 23 -3.5 44t-14.5 47
t-38 41.5t-68 15.5q-54 0 -95 -36t-42 -112zM141 740h113l84 -144h-62z" />
    <glyph glyph-name="eacute" unicode="&#xe9;" 
d="M506 234h-361q-2 -82 34 -131.5t110 -49.5q48 0 80 26t38 78h94q-8 -67 -43 -105q-59 -67 -173 -67q-116 0 -174.5 67.5t-58.5 189.5q0 81 21.5 139t77.5 97q52 37 137 37q54 0 94.5 -15t62.5 -39.5t37 -55t18 -62t6 -60.5t0 -49zM149 300h261q0 23 -3.5 44t-14.5 47
t-38 41.5t-68 15.5q-54 0 -95 -36t-42 -112zM301 740h104l-121 -144h-65z" />
    <glyph glyph-name="ecircumflex" unicode="&#xea;" 
d="M506 234h-361q-2 -82 34 -131.5t110 -49.5q48 0 80 26t38 78h94q-8 -67 -43 -105q-59 -67 -173 -67q-116 0 -174.5 67.5t-58.5 189.5q0 81 21.5 139t77.5 97q52 37 137 37q54 0 94.5 -15t62.5 -39.5t37 -55t18 -62t6 -60.5t0 -49zM149 300h261q0 23 -3.5 44t-14.5 47
t-38 41.5t-68 15.5q-54 0 -95 -36t-42 -112zM203 596h-77l106 145h90l104 -145h-86l-66 96z" />
    <glyph glyph-name="edieresis" unicode="&#xeb;" 
d="M506 234h-361q-2 -82 34 -131.5t110 -49.5q48 0 80 26t38 78h94q-8 -67 -43 -105q-59 -67 -173 -67q-116 0 -174.5 67.5t-58.5 189.5q0 81 21.5 139t77.5 97q52 37 137 37q54 0 94.5 -15t62.5 -39.5t37 -55t18 -62t6 -60.5t0 -49zM149 300h261q0 23 -3.5 44t-14.5 47
t-38 41.5t-68 15.5q-54 0 -95 -36t-42 -112zM136 617v102h92v-102h-92zM325 617v102h93v-102h-93z" />
    <glyph glyph-name="igrave" unicode="&#xec;" horiz-adv-x="278" 
d="M93 0v502h90v-502h-90zM2 740h113l84 -144h-62z" />
    <glyph glyph-name="iacute" unicode="&#xed;" horiz-adv-x="278" 
d="M93 0v502h90v-502h-90zM162 740h104l-121 -144h-65z" />
    <glyph glyph-name="icircumflex" unicode="&#xee;" horiz-adv-x="278" 
d="M93 0v502h90v-502h-90zM64 596h-77l106 145h90l104 -145h-86l-66 96z" />
    <glyph glyph-name="idieresis" unicode="&#xef;" horiz-adv-x="278" 
d="M93 0v502h90v-502h-90zM-3 617v102h92v-102h-92zM186 617v102h93v-102h-93z" />
    <glyph glyph-name="eth" unicode="&#xf0;" horiz-adv-x="611" 
d="M124 598l86 52q-54 34 -84 49l62 59q33 -17 101 -61l99 58l36 -36l-90 -52q34 -26 55 -43.5t57 -57t57 -77.5t38 -96t17 -122q0 -132 -67 -210t-189 -78q-110 0 -179 67t-69 194q0 69 21.5 121.5t56.5 82t74.5 44t81.5 14.5t76 -14t46.5 -26t28.5 -31q-52 93 -183 185
l-96 -57zM307 54q26 0 50.5 9.5t48 30.5t38 61.5t14.5 95.5q0 91 -39.5 141.5t-108.5 50.5q-70 0 -112.5 -50t-42.5 -144q0 -84 39 -139.5t113 -55.5z" />
    <glyph glyph-name="ntilde" unicode="&#xf1;" horiz-adv-x="611" 
d="M91 0v444l-1 58h94l1 -81q48 91 161 91q17 0 36.5 -2.5t47 -13.5t48 -28t35.5 -50t15 -77v-341h-96v319q0 59 -27 86q-35 34 -89 34q-55 0 -93 -39t-38 -111v-289h-94zM207 612h-42q2 43 24 70q23 28 61 28q15 0 77 -17q26 -7 37 -7q37 0 37 37h41q1 -52 -25 -76.5
t-59 -24.5q-21 0 -63 13q-8 2 -20 5.5t-19.5 5.5t-10.5 2q-27 0 -38 -36z" />
    <glyph glyph-name="ograve" unicode="&#xf2;" horiz-adv-x="611" 
d="M51 245q0 50 12.5 95t40.5 86t80 65t122 24q58 0 102.5 -17.5t71 -44.5t43.5 -63.5t23 -69.5t6 -68q0 -117 -65.5 -193t-188.5 -76q-120 0 -183.5 73t-63.5 189zM149 251q0 -84 38 -141t113 -57q62 0 107 49t45 153q0 92 -39.5 141.5t-106.5 49.5q-25 0 -50 -9t-50.5 -29
t-41 -60.5t-15.5 -96.5zM169 740h113l84 -144h-62z" />
    <glyph glyph-name="oacute" unicode="&#xf3;" horiz-adv-x="611" 
d="M51 245q0 50 12.5 95t40.5 86t80 65t122 24q58 0 102.5 -17.5t71 -44.5t43.5 -63.5t23 -69.5t6 -68q0 -117 -65.5 -193t-188.5 -76q-120 0 -183.5 73t-63.5 189zM149 251q0 -84 38 -141t113 -57q62 0 107 49t45 153q0 92 -39.5 141.5t-106.5 49.5q-25 0 -50 -9t-50.5 -29
t-41 -60.5t-15.5 -96.5zM329 740h104l-121 -144h-65z" />
    <glyph glyph-name="ocircumflex" unicode="&#xf4;" horiz-adv-x="611" 
d="M51 245q0 50 12.5 95t40.5 86t80 65t122 24q58 0 102.5 -17.5t71 -44.5t43.5 -63.5t23 -69.5t6 -68q0 -117 -65.5 -193t-188.5 -76q-120 0 -183.5 73t-63.5 189zM149 251q0 -84 38 -141t113 -57q62 0 107 49t45 153q0 92 -39.5 141.5t-106.5 49.5q-25 0 -50 -9t-50.5 -29
t-41 -60.5t-15.5 -96.5zM231 596h-77l106 145h90l104 -145h-86l-66 96z" />
    <glyph glyph-name="otilde" unicode="&#xf5;" horiz-adv-x="611" 
d="M51 245q0 50 12.5 95t40.5 86t80 65t122 24q58 0 102.5 -17.5t71 -44.5t43.5 -63.5t23 -69.5t6 -68q0 -117 -65.5 -193t-188.5 -76q-120 0 -183.5 73t-63.5 189zM149 251q0 -84 38 -141t113 -57q62 0 107 49t45 153q0 92 -39.5 141.5t-106.5 49.5q-25 0 -50 -9t-50.5 -29
t-41 -60.5t-15.5 -96.5zM207 612h-42q2 43 24 70q23 28 61 28q15 0 77 -17q26 -7 37 -7q37 0 37 37h41q1 -52 -25 -76.5t-59 -24.5q-21 0 -63 13q-8 2 -20 5.5t-19.5 5.5t-10.5 2q-27 0 -38 -36z" />
    <glyph glyph-name="odieresis" unicode="&#xf6;" horiz-adv-x="611" 
d="M51 245q0 50 12.5 95t40.5 86t80 65t122 24q58 0 102.5 -17.5t71 -44.5t43.5 -63.5t23 -69.5t6 -68q0 -117 -65.5 -193t-188.5 -76q-120 0 -183.5 73t-63.5 189zM149 251q0 -84 38 -141t113 -57q62 0 107 49t45 153q0 92 -39.5 141.5t-106.5 49.5q-25 0 -50 -9t-50.5 -29
t-41 -60.5t-15.5 -96.5zM164 617v102h92v-102h-92zM353 617v102h93v-102h-93z" />
    <glyph glyph-name="divide" unicode="&#xf7;" horiz-adv-x="584" 
d="M37 212v78h510v-78h-510zM242 10v119h100v-119h-100zM242 373v119h100v-119h-100z" />
    <glyph glyph-name="oslash" unicode="&#xf8;" horiz-adv-x="611" 
d="M477 597h60l-77 -129q92 -72 92 -217q0 -116 -66 -192t-188 -76q-67 0 -113 22l-65 -109h-59l80 135q-90 76 -90 217q0 116 64.5 191.5t183.5 75.5q61 0 117 -21zM187 109l190 319q-36 18 -74 18q-76 0 -115 -57.5t-39 -136.5q0 -89 38 -143zM415 393l-190 -320
q37 -20 75 -20q64 0 108 50.5t44 146.5q0 92 -37 143z" />
    <glyph glyph-name="ugrave" unicode="&#xf9;" horiz-adv-x="611" 
d="M78 502h96v-323q0 -22 3.5 -38.5t13.5 -34.5t33 -28t57 -10q80 0 118 56q21 30 21 94v284h97v-408q0 -10 3 -94h-98l-2 86q-12 -24 -25.5 -40.5t-49 -33.5t-85.5 -17q-90 0 -136 46.5t-46 123.5v337zM169 740h113l84 -144h-62z" />
    <glyph glyph-name="uacute" unicode="&#xfa;" horiz-adv-x="611" 
d="M78 502h96v-323q0 -22 3.5 -38.5t13.5 -34.5t33 -28t57 -10q80 0 118 56q21 30 21 94v284h97v-408q0 -10 3 -94h-98l-2 86q-12 -24 -25.5 -40.5t-49 -33.5t-85.5 -17q-90 0 -136 46.5t-46 123.5v337zM329 740h104l-121 -144h-65z" />
    <glyph glyph-name="ucircumflex" unicode="&#xfb;" horiz-adv-x="611" 
d="M78 502h96v-323q0 -22 3.5 -38.5t13.5 -34.5t33 -28t57 -10q80 0 118 56q21 30 21 94v284h97v-408q0 -10 3 -94h-98l-2 86q-12 -24 -25.5 -40.5t-49 -33.5t-85.5 -17q-90 0 -136 46.5t-46 123.5v337zM231 596h-77l106 145h90l104 -145h-86l-66 96z" />
    <glyph glyph-name="udieresis" unicode="&#xfc;" horiz-adv-x="611" 
d="M78 502h96v-323q0 -22 3.5 -38.5t13.5 -34.5t33 -28t57 -10q80 0 118 56q21 30 21 94v284h97v-408q0 -10 3 -94h-98l-2 86q-12 -24 -25.5 -40.5t-49 -33.5t-85.5 -17q-90 0 -136 46.5t-46 123.5v337zM164 617v102h92v-102h-92zM353 617v102h93v-102h-93z" />
    <glyph glyph-name="yacute" unicode="&#xfd;" 
d="M537 502l-223 -505l-72 -187h-97l76 192l-209 500h106l157 -396l160 396h102zM301 740h104l-121 -144h-65z" />
    <glyph glyph-name="thorn" unicode="&#xfe;" horiz-adv-x="611" 
d="M85 -193v914h94v-302q31 52 79 71.5t92 19.5q89 0 150 -64.5t61 -195.5q0 -132 -65.5 -200.5t-163.5 -68.5q-108 0 -154 75v-249h-93zM175 236q0 -186 141 -186q70 0 106 49q41 56 41 157q0 184 -138 184q-150 0 -150 -204z" />
    <glyph glyph-name="ydieresis" unicode="&#xff;" 
d="M537 502l-223 -505l-72 -187h-97l76 192l-209 500h106l157 -396l160 396h102zM136 617v102h92v-102h-92zM325 617v102h93v-102h-93z" />
    <glyph glyph-name="dotlessi" unicode="&#x131;" horiz-adv-x="278" 
d="M93 0v502h90v-502h-90z" />
    <glyph glyph-name="Lslash" unicode="&#x141;" 
d="M93 0v304l-74 -46v74l74 45v345h99v-283l193 120v-73l-193 -120v-277h336v-89h-435z" />
    <glyph glyph-name="lslash" unicode="&#x142;" horiz-adv-x="278" 
d="M90 0v299l-66 -41v72l66 41v350h94v-292l66 41v-72l-66 -41v-357h-94z" />
    <glyph glyph-name="OE" unicode="&#x152;" horiz-adv-x="1000" 
d="M947 86v-86h-579q-137 0 -230.5 94t-93.5 270q0 218 151 314q73 47 198 47q2 0 18.5 -0.5t27.5 -0.5q38 -2 45 -2h460v-83h-340v-227h324v-83h-324v-243h343zM503 85v556q-85 5 -110 5q-114 0 -176 -68q-69 -74 -69 -213q0 -131 61 -208q58 -74 200 -74q45 0 94 2z" />
    <glyph glyph-name="oe" unicode="&#x153;" horiz-adv-x="944" 
d="M795 155h92q-6 -51 -29 -87t-55.5 -53t-60.5 -24t-56 -7q-80 0 -138 47q-31 26 -53 73q-22 -44 -46 -66q-58 -53 -150 -53q-65 0 -115 24t-77.5 63.5t-41 83.5t-13.5 90q0 111 67.5 188t184.5 77q47 0 83 -13t58 -36.5t31.5 -38t19.5 -35.5q14 42 41 70t59 39t51.5 14
t38.5 3q84 0 135.5 -45t64.5 -110q11 -50 9 -125h-350q0 -77 23 -116q17 -30 48.5 -47t65.5 -17q46 0 77 28t36 73zM548 303h249q0 57 -16 88q-28 56 -99 56t-109 -54q-22 -33 -25 -90zM154 254q0 -96 42 -152q38 -49 109 -49q41 0 71 18t46 48.5t23.5 62.5t7.5 67
q0 81 -35.5 137t-111.5 56q-42 0 -73.5 -17.5t-47.5 -46.5t-23.5 -59.5t-7.5 -64.5z" />
    <glyph glyph-name="Scaron" unicode="&#x160;" horiz-adv-x="667" 
d="M56 211h104q1 -17 2.5 -28.5t6.5 -30.5t16.5 -31.5t29.5 -26t48.5 -20t70.5 -6.5q52 0 89 14.5t52.5 37.5t21.5 41t6 36q0 24 -8.5 42t-19.5 28.5t-37 21t-44 15.5t-57 15q-95 23 -132.5 35t-63.5 29q-75 51 -75 142q0 70 41.5 119.5t101.5 70.5t132 21q138 0 203 -71
q39 -42 44 -123h-104q-6 110 -152 110q-75 0 -117.5 -31.5t-42.5 -85.5q0 -46 29.5 -68t100.5 -39q137 -35 170 -45.5t63 -30.5q72 -47 72 -144q0 -99 -75 -162t-210 -63q-160 0 -224 82q-42 54 -42 146zM285 786l-104 143h86l67 -96l69 96h79l-104 -143h-93z" />
    <glyph glyph-name="scaron" unicode="&#x161;" horiz-adv-x="500" 
d="M43 149h99q-1 -36 24 -63.5t86 -27.5q62 0 88 32q16 21 16 47q0 34 -23 47t-87 28q-41 9 -61.5 15t-50.5 18t-44.5 26t-25.5 37.5t-11 53.5q0 69 54.5 110.5t141.5 41.5q57 0 109 -18.5t72 -59.5q13 -28 13 -73h-96q1 27 -8.5 44.5t-27 25t-31 10t-30.5 2.5
q-12 0 -23 -1.5t-32 -7t-34 -22t-13 -41.5q0 -21 14 -35.5t25.5 -19t31.5 -9.5q110 -26 143.5 -37.5t55.5 -31.5q38 -35 38 -93q0 -40 -19.5 -74.5t-48.5 -52.5q-55 -34 -149 -34q-85 0 -141 39t-55 124zM201 596l-104 143h86l67 -96l69 96h79l-104 -143h-93z" />
    <glyph glyph-name="Ydieresis" unicode="&#x178;" horiz-adv-x="667" 
d="M289 0v284l-282 438h124l213 -354l216 354h112l-282 -443v-279h-101zM192 797v102h92v-102h-92zM381 797v102h93v-102h-93z" />
    <glyph glyph-name="Zcaron" unicode="&#x17d;" horiz-adv-x="611" 
d="M35 0v100l417 534h-406v88h525v-99l-421 -535h428v-88h-543zM257 786l-104 143h86l67 -96l69 96h79l-104 -143h-93z" />
    <glyph glyph-name="zcaron" unicode="&#x17e;" horiz-adv-x="444" 
d="M30 0v97l268 334h-254v71h361v-80l-277 -349h277v-73h-375zM173 596l-104 143h86l67 -96l69 96h79l-104 -143h-93z" />
    <glyph glyph-name="florin" unicode="&#x192;" 
d="M137 417h91l23 110q18 89 52 119q43 38 114 38q21 0 54 -6l-11 -70q-27 3 -35 3q-71 0 -87 -86l-23 -108h105l-14 -67h-103l-61 -325q-8 -40 -12 -60.5t-12.5 -49.5t-17.5 -43t-24 -31.5t-34.5 -24t-46 -11t-61.5 -2.5l12 72q10 -2 16 -2q40 0 57 29q11 18 38 147l58 301
h-90z" />
    <glyph glyph-name="circumflex" unicode="&#x2c6;" horiz-adv-x="278" 
d="M64 596h-77l106 145h90l104 -145h-86l-66 96z" />
    <glyph glyph-name="caron" unicode="&#x2c7;" horiz-adv-x="278" 
d="M90 596l-104 143h86l67 -96l69 96h79l-104 -143h-93z" />
    <glyph glyph-name="uni02C9" unicode="&#x2c9;" horiz-adv-x="278" 
d="M0 642v53h275v-53h-275z" />
    <glyph glyph-name="breve" unicode="&#x2d8;" horiz-adv-x="278" 
d="M2 751h47q3 -94 88 -94q24 0 42 8.5t27 19t14.5 25.5t7 23.5t1.5 17.5h47q2 -76 -33.5 -116.5t-105.5 -40.5q-135 0 -135 157z" />
    <glyph glyph-name="dotaccent" unicode="&#x2d9;" horiz-adv-x="278" 
d="M93 617v102h92v-102h-92z" />
    <glyph glyph-name="ring" unicode="&#x2da;" horiz-adv-x="278" 
d="M41 669q0 41 28.5 69.5t69.5 28.5t69.5 -28.5t28.5 -69.5t-28.5 -69.5t-69.5 -28.5t-69.5 28.5t-28.5 69.5zM81 669q0 -24 17 -41t41 -17t41 17t17 41t-17 41t-41 17t-41 -17t-17 -41z" />
    <glyph glyph-name="ogonek" unicode="&#x2db;" horiz-adv-x="278" 
d="M233 -132v-41q-50 -25 -94 -25q-48 0 -71 23t-23 51q0 72 121 125h40q-23 -16 -31 -21.5t-23.5 -19.5t-21.5 -26.5t-6 -27.5q0 -50 64 -50q26 0 45 12z" />
    <glyph glyph-name="tilde" unicode="&#x2dc;" horiz-adv-x="278" 
d="M40 612h-42q2 43 24 70q23 28 61 28q15 0 77 -17q26 -7 37 -7q37 0 37 37h41q1 -52 -25 -76.5t-59 -24.5q-21 0 -63 13q-8 2 -20 5.5t-19.5 5.5t-10.5 2q-27 0 -38 -36z" />
    <glyph glyph-name="hungarumlaut" unicode="&#x2dd;" horiz-adv-x="400" 
d="M192 740l-121 -144h-65l82 144h104zM351 740l-121 -144h-65l82 144h104z" />
    <glyph glyph-name="uni03A9" unicode="&#x3a9;" horiz-adv-x="717" 
d="M193 71v3q-58 51 -95.5 128.5t-37.5 172.5q0 143 85.5 236.5t215.5 93.5q132 0 213 -96.5t81 -228.5q0 -98 -39 -178.5t-95 -127.5v-3h148v-71h-246v52q62 40 103.5 120.5t41.5 191.5q-1 106 -56.5 187.5t-151.5 81.5q-95 0 -153.5 -78t-58.5 -195q0 -104 42.5 -187.5
t101.5 -120.5v-52h-246v71h147z" />
    <glyph glyph-name="uni03BC" unicode="&#x3bc;" horiz-adv-x="611" 
d="M89 -209v711h80v-242q0 -106 23 -146q33 -56 101 -56q72 0 109 63q25 43 25 141v240h81v-502h-74v70q-56 -81 -143 -81q-35 0 -62.5 13t-36.5 22.5t-23 27.5v-261h-80z" />
    <glyph glyph-name="pi" unicode="&#x3c0;" horiz-adv-x="576" 
d="M550 444h-78v-297q0 -91 14 -147h-83q-17 29 -17 141v303h-172q-4 -103 -24.5 -240t-46.5 -204h-84q27 78 47 210.5t23 233.5q-73 0 -109 -12l-12 57q44 28 148 28h402z" />
    <glyph glyph-name="uni2010" unicode="&#x2010;" horiz-adv-x="333" 
d="M42 225v76h251v-76h-251z" />
    <glyph glyph-name="endash" unicode="&#x2013;" horiz-adv-x="500" 
d="M0 231v72h500v-72h-500z" />
    <glyph glyph-name="emdash" unicode="&#x2014;" horiz-adv-x="1000" 
d="M130 231v72h740v-72h-740z" />
    <glyph glyph-name="quoteleft" unicode="&#x2018;" horiz-adv-x="278" 
d="M161 476h-115l115 246h67z" />
    <glyph glyph-name="quoteright" unicode="&#x2019;" horiz-adv-x="278" 
d="M112 722h115l-112 -246h-68z" />
    <glyph glyph-name="quotesinglbase" unicode="&#x201a;" horiz-adv-x="278" 
d="M111 100h115l-110 -235h-67z" />
    <glyph glyph-name="quotedblleft" unicode="&#x201c;" 
d="M202 476h-115l115 246h67zM389 476h-115l115 246h67z" />
    <glyph glyph-name="quotedblright" unicode="&#x201d;" 
d="M164 722h115l-115 -246h-67zM352 722h114l-114 -246h-67z" />
    <glyph glyph-name="quotedblbase" unicode="&#x201e;" 
d="M164 100h115l-110 -235h-67zM351 100h114l-110 -235h-67z" />
    <glyph glyph-name="dagger" unicode="&#x2020;" 
d="M480 553v-74h-167v-479h-79v479h-170v74h170v169h79v-169h167z" />
    <glyph glyph-name="daggerdbl" unicode="&#x2021;" 
d="M235 556v166h80v-166h170v-75h-170v-238h170v-74h-170v-169h-80v169h-170v74h170v238h-170v75h170z" />
    <glyph glyph-name="bullet" unicode="&#x2022;" horiz-adv-x="350" 
d="M178 542q74 0 127 -53t53 -128q0 -74 -52.5 -127t-127.5 -53t-128 53t-53 127q0 75 53 128t128 53z" />
    <glyph glyph-name="ellipsis" unicode="&#x2026;" horiz-adv-x="1000" 
d="M126 0v120h111v-120h-111zM445 0v120h111v-120h-111zM764 0v120h111v-120h-111z" />
    <glyph glyph-name="perthousand" unicode="&#x2030;" horiz-adv-x="1000" 
d="M301 545q0 -76 -35 -125.5t-114 -49.5q-72 0 -107.5 43.5t-35.5 120.5q0 14 1 25t4.5 34.5t13 41.5t24.5 37t42 29.5t62 10.5q73 0 109 -44.5t36 -122.5zM155 427q72 0 72 117q0 112 -71 112q-74 0 -74 -118q0 -111 73 -111zM638 163q0 -76 -35 -125.5t-114 -49.5
q-72 0 -107.5 43.5t-35.5 120.5q0 13 1 24t4.5 35t13 42t24.5 37t42 29.5t62 10.5q73 0 109 -45t36 -122zM492 45q72 0 72 117q0 112 -72 112q-74 0 -74 -118q0 -111 74 -111zM985 163q0 -76 -35 -125.5t-114 -49.5q-72 0 -107.5 43.5t-35.5 120.5q0 13 1 24t4.5 35t13 42
t24.5 37t42 29.5t62 10.5q73 0 109 -44.5t36 -122.5zM839 45q72 0 72 117q0 112 -71 112q-74 0 -74 -118q0 -111 73 -111zM519 731h63l-472 -768h-62z" />
    <glyph glyph-name="guilsinglleft" unicode="&#x2039;" horiz-adv-x="278" 
d="M240 53h-80l-111 196l111 194h78l-97 -194z" />
    <glyph glyph-name="guilsinglright" unicode="&#x203a;" horiz-adv-x="278" 
d="M29 443h80l111 -195l-111 -195h-79l97 195z" />
    <glyph glyph-name="fraction" unicode="&#x2044;" horiz-adv-x="167" 
d="M-168 -28l430 743h64l-429 -743h-65z" />
    <glyph glyph-name="Euro" unicode="&#x20ac;" 
d="M5 234l20 67h50q-2 30 -2 44q0 4 1 12.5t1 12.5h-70l20 67h57q18 119 86 191.5t171 72.5q88 0 147.5 -52.5t61.5 -150.5h-90q-1 42 -16.5 70t-38 39t-37 14.5t-27.5 3.5q-60 0 -104 -52.5t-59 -135.5h231l-20 -67h-218q0 -4 -0.5 -11t-0.5 -10q0 -16 2 -48h205l-20 -67
h-178q15 -78 53 -124.5t103 -46.5q55 0 89.5 32t35.5 88h91v-3q0 -26 -9.5 -55.5t-31 -62t-66.5 -54t-107 -21.5q-108 0 -171 65t-81 182h-78z" />
    <glyph glyph-name="afii61289" unicode="&#x2113;" horiz-adv-x="491" 
d="M429 155l39 -36q-67 -129 -191 -129q-81 0 -122 50.5t-46 128.5v13q-9 -7 -28 -23t-28 -23l-25 49q77 66 80 69v267q0 125 45.5 183.5t113.5 58.5q62 0 94.5 -46.5t32.5 -118.5q0 -162 -204 -361v-34q1 -72 30.5 -108t74.5 -36q42 0 77 28.5t57 67.5zM190 526v-206
q146 160 146 278q0 101 -68 101q-31 0 -54.5 -41.5t-23.5 -131.5z" />
    <glyph glyph-name="trademark" unicode="&#x2122;" horiz-adv-x="1000" 
d="M409 361v361h83l97 -297l99 297h78v-361h-46v324l-112 -324h-45l-108 324v-324h-46zM239 361h-44v318h-102v43h251v-43h-105v-318z" />
    <glyph glyph-name="Omega" unicode="&#x2126;" horiz-adv-x="717" 
d="M193 71v3q-58 51 -95.5 128.5t-37.5 172.5q0 143 85.5 236.5t215.5 93.5q132 0 213 -96.5t81 -228.5q0 -98 -39 -178.5t-95 -127.5v-3h148v-71h-246v52q62 40 103.5 120.5t41.5 191.5q-1 106 -56.5 187.5t-151.5 81.5q-95 0 -153.5 -78t-58.5 -195q0 -104 42.5 -187.5
t101.5 -120.5v-52h-246v71h147z" />
    <glyph glyph-name="estimated" unicode="&#x212e;" horiz-adv-x="868" 
d="M833 336h-647q-5 0 -5 -4v-196q0 -12 8 -23q103 -106 245 -106q75 0 142 32t116 87h57q-54 -64 -137.5 -101.5t-178.5 -37.5q-165 0 -282 105t-117 254t117 254.5t282 105.5q166 0 283 -105.5t117 -254.5v-10zM686 361v198q0 14 -9 23q-104 102 -243 102
q-141 0 -244 -105q-9 -11 -9 -25v-193q0 -6 5 -6h496q4 0 4 6z" />
    <glyph glyph-name="partialdiff" unicode="&#x2202;" horiz-adv-x="552" 
d="M102 658l-28 64q70 55 170 55q107 0 182 -98t75 -278q0 -182 -69.5 -296.5t-194.5 -114.5q-93 0 -144.5 69.5t-51.5 161.5q0 114 62.5 184.5t150.5 70.5q59 0 102 -30.5t59 -61.5h1q1 11 1 41q0 122 -53 201.5t-130 79.5q-73 0 -132 -48zM244 62h1q65 0 108.5 71
t53.5 170q-13 37 -50.5 70t-87.5 33q-59 0 -100.5 -54.5t-41.5 -131.5q0 -69 32.5 -113.5t84.5 -44.5z" />
    <glyph glyph-name="uni2206" unicode="&#x2206;" horiz-adv-x="649" 
d="M30 0v56l246 656h101l241 -655v-57h-588zM118 70h407l-137 361q-8 24 -32.5 91.5t-31.5 91.5h-3q-5 -20 -28 -82t-30 -86z" />
    <glyph glyph-name="product" unicode="&#x220f;" horiz-adv-x="703" 
d="M676 615h-107v-711h-85v711h-266v-711h-85v711h-108v79h651v-79z" />
    <glyph glyph-name="summation" unicode="&#x2211;" horiz-adv-x="554" 
d="M532 -96h-509v57l262 337l-251 335v61h482v-74h-364v-4l231 -305l-251 -323v-3h400v-81z" />
    <glyph glyph-name="minus" unicode="&#x2212;" horiz-adv-x="584" 
d="M37 212v78h510v-78h-510z" />
    <glyph glyph-name="uni2215" unicode="&#x2215;" horiz-adv-x="167" 
d="M-168 -28l430 743h64l-429 -743h-65z" />
    <glyph glyph-name="uni2219" unicode="&#x2219;" horiz-adv-x="278" 
d="M81 231v121h111v-121h-111z" />
    <glyph glyph-name="radical" unicode="&#x221a;" horiz-adv-x="575" 
d="M577 826l-222 -972h-74l-157 455l-74 -29l-17 51l144 57l122 -359q2 -11 9 -37t9 -37l1 -1q0 2 14 76l182 796h63z" />
    <glyph glyph-name="infinity" unicode="&#x221e;" horiz-adv-x="774" 
d="M724 288v-1q0 -71 -46 -116t-108 -45q-46 0 -87.5 27.5t-94.5 89.5q-48 -57 -90.5 -87t-97.5 -30q-61 0 -105.5 45.5t-44.5 111.5q0 70 45 115.5t113 45.5q51 0 94 -30.5t90 -86.5q24 27 31 34.5t30 29t37.5 29.5t38.5 16t48 8q65 0 106 -43.5t41 -112.5zM208 177h1
q10 0 20 2t20 6.5t17.5 8.5t17.5 12.5t16 13t16.5 15.5t14.5 15t14.5 16t13.5 15q-21 26 -27.5 34t-26 28.5t-31.5 28t-32 15t-40 7.5q-45 0 -71.5 -32t-26.5 -80q1 -44 30 -74.5t74 -30.5zM571 394h-1q-23 0 -48.5 -14t-37.5 -24.5t-38 -39t-27 -29.5q54 -62 85.5 -86
t68.5 -24q44 0 70.5 32.5t26.5 73.5q0 51 -27.5 81t-71.5 30z" />
    <glyph glyph-name="integral" unicode="&#x222b;" horiz-adv-x="364" 
d="M347 837l-13 -60q-16 10 -36 10q-31 0 -51 -24q-32 -39 -32 -175q0 -77 7 -244t7 -251q0 -133 -41 -200q-33 -55 -106 -55q-43 0 -67 16l13 62q27 -12 45 -12q28 0 46 22q32 42 32 168q0 84 -6.5 253.5t-6.5 248.5q0 84 12 133.5t42 80.5q39 40 99 40q32 0 56 -13z" />
    <glyph glyph-name="approxequal" unicode="&#x2248;" horiz-adv-x="559" 
d="M480 433l34 -30q-50 -96 -130 -96q-45 0 -116 41q-57 34 -92 34q-31 0 -52.5 -19t-45.5 -55l-34 30q50 96 139 96q14 0 26.5 -2.5t26 -8t20 -8.5t21 -11.5t16.5 -9.5q6 -3 19.5 -10.5t19 -10.5t16 -7t19.5 -5.5t19 -1.5q28 0 49.5 18t44.5 56zM480 259l34 -30
q-50 -95 -130 -95q-28 0 -51 9t-65 32q-59 34 -91 34t-53.5 -19t-45.5 -55l-34 29q23 45 59.5 71t79.5 26q17 0 35 -5t27 -8.5t27.5 -14t20.5 -11.5q5 -3 18 -10.5t19 -10.5t16.5 -7.5t20 -6t19.5 -1.5q29 0 50 17.5t44 55.5z" />
    <glyph glyph-name="notequal" unicode="&#x2260;" horiz-adv-x="559" 
d="M400 503l-44 -96h152v-53h-173l-66 -144h239v-53h-260l-53 -117l-43 19l45 98h-147v53h169l65 144h-234v53h255l52 115z" />
    <glyph glyph-name="lessequal" unicode="&#x2264;" horiz-adv-x="559" 
d="M506 96l-450 224v57l449 224v-64l-393 -187v-2l394 -188v-64zM509 1h-458v55h458v-55z" />
    <glyph glyph-name="greaterequal" unicode="&#x2265;" horiz-adv-x="559" 
d="M57 601l450 -224v-57l-450 -224v64l392 187v2l-392 188v64zM508 1h-457v55h457v-55z" />
    <glyph glyph-name="lozenge" unicode="&#x25ca;" horiz-adv-x="575" 
d="M521 346l-201 -392h-69l-198 392l201 393h69zM444 344l-137 270q-13 32 -19 54h-2q-11 -35 -20 -54l-135 -266l137 -272q15 -37 17 -52h4q12 39 18 51z" />
    <glyph glyph-name="fi" unicode="&#xfb01;" horiz-adv-x="611" 
d="M411 618v102h112v-102h-112zM514 0h-93v502h93v-502zM339 727v-75q-32 2 -55 2q-27 0 -43.5 -5.5t-23 -18.5t-8 -22t-1.5 -27v-79h117v-68h-117v-434h-93v434h-99v68h99v57q0 52 4 76.5t17 43.5q37 55 126 55q30 0 77 -7z" />
    <glyph glyph-name="fl" unicode="&#xfb02;" horiz-adv-x="611" 
d="M419 0v721h94v-721h-94zM339 727v-75q-32 2 -55 2q-27 0 -43.5 -5.5t-23 -18.5t-8 -22t-1.5 -27v-79h117v-68h-117v-434h-93v434h-99v68h99v57q0 52 4 76.5t17 43.5q37 55 126 55q30 0 77 -7z" />
    <glyph glyph-name="a.superior" horiz-adv-x="334" 
d="M299 431h-55q-6 21 -6 45q-32 -55 -102 -55q-48 0 -80.5 23.5t-32.5 66.5q0 40 27 65t61.5 33.5t77.5 8.5q32 0 48 -2q0 19 -0.5 29t-4 23t-10.5 19t-20 10.5t-32 4.5q-63 0 -67 -50h-61q3 51 43 71q31 18 85 18q95 0 118 -48q10 -22 8 -43l-2 -143q0 -36 5 -76zM237 577
q-18 0 -52 2t-67.5 -13.5t-33.5 -47.5q0 -19 15.5 -35.5t52.5 -16.5q54 0 75 41q8 19 10 70z" />
    <glyph glyph-name="o.superior" horiz-adv-x="367" 
d="M208 740q48 0 82 -16t50.5 -42t23 -50.5t6.5 -50.5q0 -71 -43.5 -116t-119.5 -45q-82 0 -122.5 45.5t-40.5 112.5q0 69 41 115.5t123 46.5zM206 463q40 0 69.5 29.5t29.5 90.5q0 47 -21.5 81t-74.5 34q-50 0 -75.5 -34.5t-25.5 -81.5t23 -83t75 -36z" />
    <glyph glyph-name="one.superior" horiz-adv-x="333" 
d="M225 284h-62v350q-47 -35 -105 -61v61q66 31 109 65h58v-415z" />
    <glyph glyph-name="two.superior" horiz-adv-x="333" 
d="M24 284v54l117 107q62 55 82.5 86t20.5 60q0 32 -20 49.5t-53 17.5q-25 0 -41 -8.5t-22 -24t-7.5 -22t-2.5 -17.5h-68q2 37 17 63t38.5 37t43.5 15.5t40 4.5q62 0 101 -31t39 -89q0 -45 -50 -103q-34 -39 -85 -83l-78 -69h214v-47h-286z" />
    <glyph glyph-name="three.superior" horiz-adv-x="333" 
d="M12 390h68q0 -33 22.5 -50.5t62.5 -17.5q43 0 65.5 22t22.5 53q0 83 -127 75v49q7 -3 26.5 -0.5t40.5 7t37 21.5t16 44q0 36 -24 51t-55 15q-35 0 -58 -18t-24 -48h-66q1 42 27 69t56 35.5t63 8.5q70 0 108.5 -33t38.5 -79q0 -31 -21.5 -59t-68.5 -38q27 -4 46.5 -15.5
t29 -23.5t14.5 -27.5t5.5 -22t0.5 -12.5q0 -52 -43.5 -87.5t-115.5 -35.5q-81 0 -121 44q-23 25 -26 73z" />
    </font>
</defs>
</svg>
